<?xml version="1.0" encoding="utf-8" standalone="no"?>
<!DOCTYPE svg PUBLIC "-//W3C//DTD SVG 1.1//EN"
  "http://www.w3.org/Graphics/SVG/1.1/DTD/svg11.dtd">
<svg xmlns:xlink="http://www.w3.org/1999/xlink" width="364.904447pt" height="247.752719pt" viewBox="0 0 364.904447 247.752719" xmlns="http://www.w3.org/2000/svg" version="1.1">
 <metadata>
  <rdf:RDF xmlns:dc="http://purl.org/dc/elements/1.1/" xmlns:cc="http://creativecommons.org/ns#" xmlns:rdf="http://www.w3.org/1999/02/22-rdf-syntax-ns#">
   <cc:Work>
    <dc:type rdf:resource="http://purl.org/dc/dcmitype/StillImage"/>
    <dc:date>2026-08-08T16:45:45.104373</dc:date>
    <dc:format>image/svg+xml</dc:format>
    <dc:creator>
     <cc:Agent>
      <dc:title>Matplotlib v3.9.4, https://matplotlib.org/</dc:title>
     </cc:Agent>
    </dc:creator>
   </cc:Work>
  </rdf:RDF>
 </metadata>
 <defs>
  <style type="text/css">*{stroke-linejoin: round; stroke-linecap: butt}</style>
 </defs>
 <g id="figure_1">
  <g id="patch_1">
   <path d="M 0 247.752719 
L 364.904447 247.752719 
L 364.904447 0 
L 0 0 
z
" style="fill: #ffffff"/>
  </g>
  <g id="axes_1">
   <g id="patch_2">
    <path d="M 46.965625 210.054281 
L 337.125625 210.054281 
L 337.125625 21.558281 
L 46.965625 21.558281 
z
" style="fill: #ffffff"/>
   </g>
   <g id="matplotlib.axis_1">
    <g id="xtick_1">
     <g id="line2d_1">
      <defs>
       <path id="m563588e8bf" d="M 0 0 
L 0 3.5 
" style="stroke: #000000; stroke-width: 0.8"/>
      </defs>
      <g>
       <use xlink:href="#m563588e8bf" x="46.965625" y="210.054281" style="stroke: #000000; stroke-width: 0.8"/>
      </g>
     </g>
     <g id="text_1">
      <!-- $\mathdefault{10^{-2}}$ -->
      <g transform="translate(35.265625 224.652719) scale(0.1 -0.1)">
       <defs>
        <path id="DejaVuSerif-31" d="M 909 0 
L 909 331 
L 1722 331 
L 1722 4213 
L 781 3603 
L 781 4013 
L 1919 4750 
L 2350 4750 
L 2350 331 
L 3163 331 
L 3163 0 
L 909 0 
z
" transform="scale(0.015625)"/>
        <path id="DejaVuSerif-30" d="M 2034 219 
Q 2513 219 2750 744 
Q 2988 1269 2988 2328 
Q 2988 3391 2750 3916 
Q 2513 4441 2034 4441 
Q 1556 4441 1318 3916 
Q 1081 3391 1081 2328 
Q 1081 1269 1318 744 
Q 1556 219 2034 219 
z
M 2034 -91 
Q 1275 -91 848 546 
Q 422 1184 422 2328 
Q 422 3475 848 4112 
Q 1275 4750 2034 4750 
Q 2797 4750 3222 4112 
Q 3647 3475 3647 2328 
Q 3647 1184 3222 546 
Q 2797 -91 2034 -91 
z
" transform="scale(0.015625)"/>
        <path id="DejaVuSerif-2212" d="M 678 2259 
L 4684 2259 
L 4684 1753 
L 678 1753 
L 678 2259 
z
" transform="scale(0.015625)"/>
        <path id="DejaVuSerif-32" d="M 819 3553 
L 469 3553 
L 469 4384 
Q 803 4563 1142 4656 
Q 1481 4750 1806 4750 
Q 2534 4750 2956 4397 
Q 3378 4044 3378 3438 
Q 3378 2753 2422 1800 
Q 2347 1728 2309 1691 
L 1131 513 
L 3078 513 
L 3078 1088 
L 3444 1088 
L 3444 0 
L 434 0 
L 434 341 
L 1850 1753 
Q 2319 2222 2519 2614 
Q 2719 3006 2719 3438 
Q 2719 3909 2473 4175 
Q 2228 4441 1797 4441 
Q 1350 4441 1106 4219 
Q 863 3997 819 3553 
z
" transform="scale(0.015625)"/>
       </defs>
       <use xlink:href="#DejaVuSerif-31" transform="translate(0 0.7125)"/>
       <use xlink:href="#DejaVuSerif-30" transform="translate(63.623047 0.7125)"/>
       <use xlink:href="#DejaVuSerif-2212" transform="translate(128.154453 37.046875) scale(0.7)"/>
       <use xlink:href="#DejaVuSerif-32" transform="translate(186.806797 37.046875) scale(0.7)"/>
      </g>
     </g>
    </g>
    <g id="xtick_2">
     <g id="line2d_2">
      <g>
       <use xlink:href="#m563588e8bf" x="110.908236" y="210.054281" style="stroke: #000000; stroke-width: 0.8"/>
      </g>
     </g>
     <g id="text_2">
      <!-- $\mathdefault{10^{-1}}$ -->
      <g transform="translate(99.208236 224.652719) scale(0.1 -0.1)">
       <use xlink:href="#DejaVuSerif-31" transform="translate(0 0.7125)"/>
       <use xlink:href="#DejaVuSerif-30" transform="translate(63.623047 0.7125)"/>
       <use xlink:href="#DejaVuSerif-2212" transform="translate(128.154453 37.046875) scale(0.7)"/>
       <use xlink:href="#DejaVuSerif-31" transform="translate(186.806797 37.046875) scale(0.7)"/>
      </g>
     </g>
    </g>
    <g id="xtick_3">
     <g id="line2d_3">
      <g>
       <use xlink:href="#m563588e8bf" x="174.850846" y="210.054281" style="stroke: #000000; stroke-width: 0.8"/>
      </g>
     </g>
     <g id="text_3">
      <!-- $\mathdefault{10^{0}}$ -->
      <g transform="translate(166.050846 224.652719) scale(0.1 -0.1)">
       <use xlink:href="#DejaVuSerif-31" transform="translate(0 0.7125)"/>
       <use xlink:href="#DejaVuSerif-30" transform="translate(63.623047 0.7125)"/>
       <use xlink:href="#DejaVuSerif-30" transform="translate(128.154453 37.046875) scale(0.7)"/>
      </g>
     </g>
    </g>
    <g id="xtick_4">
     <g id="line2d_4">
      <g>
       <use xlink:href="#m563588e8bf" x="238.793457" y="210.054281" style="stroke: #000000; stroke-width: 0.8"/>
      </g>
     </g>
     <g id="text_4">
      <!-- $\mathdefault{10^{1}}$ -->
      <g transform="translate(229.993457 224.652719) scale(0.1 -0.1)">
       <use xlink:href="#DejaVuSerif-31" transform="translate(0 0.7125)"/>
       <use xlink:href="#DejaVuSerif-30" transform="translate(63.623047 0.7125)"/>
       <use xlink:href="#DejaVuSerif-31" transform="translate(128.154453 37.046875) scale(0.7)"/>
      </g>
     </g>
    </g>
    <g id="xtick_5">
     <g id="line2d_5">
      <g>
       <use xlink:href="#m563588e8bf" x="302.736068" y="210.054281" style="stroke: #000000; stroke-width: 0.8"/>
      </g>
     </g>
     <g id="text_5">
      <!-- $\mathdefault{10^{2}}$ -->
      <g transform="translate(293.936068 224.652719) scale(0.1 -0.1)">
       <use xlink:href="#DejaVuSerif-31" transform="translate(0 0.7125)"/>
       <use xlink:href="#DejaVuSerif-30" transform="translate(63.623047 0.7125)"/>
       <use xlink:href="#DejaVuSerif-32" transform="translate(128.154453 37.046875) scale(0.7)"/>
      </g>
     </g>
    </g>
    <g id="xtick_6">
     <g id="line2d_6">
      <defs>
       <path id="m7afc6c52c7" d="M 0 0 
L 0 2 
" style="stroke: #000000; stroke-width: 0.6"/>
      </defs>
      <g>
       <use xlink:href="#m7afc6c52c7" x="66.214269" y="210.054281" style="stroke: #000000; stroke-width: 0.6"/>
      </g>
     </g>
    </g>
    <g id="xtick_7">
     <g id="line2d_7">
      <g>
       <use xlink:href="#m7afc6c52c7" x="77.474004" y="210.054281" style="stroke: #000000; stroke-width: 0.6"/>
      </g>
     </g>
    </g>
    <g id="xtick_8">
     <g id="line2d_8">
      <g>
       <use xlink:href="#m7afc6c52c7" x="85.462913" y="210.054281" style="stroke: #000000; stroke-width: 0.6"/>
      </g>
     </g>
    </g>
    <g id="xtick_9">
     <g id="line2d_9">
      <g>
       <use xlink:href="#m7afc6c52c7" x="91.659592" y="210.054281" style="stroke: #000000; stroke-width: 0.6"/>
      </g>
     </g>
    </g>
    <g id="xtick_10">
     <g id="line2d_10">
      <g>
       <use xlink:href="#m7afc6c52c7" x="96.722647" y="210.054281" style="stroke: #000000; stroke-width: 0.6"/>
      </g>
     </g>
    </g>
    <g id="xtick_11">
     <g id="line2d_11">
      <g>
       <use xlink:href="#m7afc6c52c7" x="101.0034" y="210.054281" style="stroke: #000000; stroke-width: 0.6"/>
      </g>
     </g>
    </g>
    <g id="xtick_12">
     <g id="line2d_12">
      <g>
       <use xlink:href="#m7afc6c52c7" x="104.711557" y="210.054281" style="stroke: #000000; stroke-width: 0.6"/>
      </g>
     </g>
    </g>
    <g id="xtick_13">
     <g id="line2d_13">
      <g>
       <use xlink:href="#m7afc6c52c7" x="107.982382" y="210.054281" style="stroke: #000000; stroke-width: 0.6"/>
      </g>
     </g>
    </g>
    <g id="xtick_14">
     <g id="line2d_14">
      <g>
       <use xlink:href="#m7afc6c52c7" x="130.15688" y="210.054281" style="stroke: #000000; stroke-width: 0.6"/>
      </g>
     </g>
    </g>
    <g id="xtick_15">
     <g id="line2d_15">
      <g>
       <use xlink:href="#m7afc6c52c7" x="141.416614" y="210.054281" style="stroke: #000000; stroke-width: 0.6"/>
      </g>
     </g>
    </g>
    <g id="xtick_16">
     <g id="line2d_16">
      <g>
       <use xlink:href="#m7afc6c52c7" x="149.405523" y="210.054281" style="stroke: #000000; stroke-width: 0.6"/>
      </g>
     </g>
    </g>
    <g id="xtick_17">
     <g id="line2d_17">
      <g>
       <use xlink:href="#m7afc6c52c7" x="155.602203" y="210.054281" style="stroke: #000000; stroke-width: 0.6"/>
      </g>
     </g>
    </g>
    <g id="xtick_18">
     <g id="line2d_18">
      <g>
       <use xlink:href="#m7afc6c52c7" x="160.665258" y="210.054281" style="stroke: #000000; stroke-width: 0.6"/>
      </g>
     </g>
    </g>
    <g id="xtick_19">
     <g id="line2d_19">
      <g>
       <use xlink:href="#m7afc6c52c7" x="164.946011" y="210.054281" style="stroke: #000000; stroke-width: 0.6"/>
      </g>
     </g>
    </g>
    <g id="xtick_20">
     <g id="line2d_20">
      <g>
       <use xlink:href="#m7afc6c52c7" x="168.654167" y="210.054281" style="stroke: #000000; stroke-width: 0.6"/>
      </g>
     </g>
    </g>
    <g id="xtick_21">
     <g id="line2d_21">
      <g>
       <use xlink:href="#m7afc6c52c7" x="171.924993" y="210.054281" style="stroke: #000000; stroke-width: 0.6"/>
      </g>
     </g>
    </g>
    <g id="xtick_22">
     <g id="line2d_22">
      <g>
       <use xlink:href="#m7afc6c52c7" x="194.09949" y="210.054281" style="stroke: #000000; stroke-width: 0.6"/>
      </g>
     </g>
    </g>
    <g id="xtick_23">
     <g id="line2d_23">
      <g>
       <use xlink:href="#m7afc6c52c7" x="205.359225" y="210.054281" style="stroke: #000000; stroke-width: 0.6"/>
      </g>
     </g>
    </g>
    <g id="xtick_24">
     <g id="line2d_24">
      <g>
       <use xlink:href="#m7afc6c52c7" x="213.348134" y="210.054281" style="stroke: #000000; stroke-width: 0.6"/>
      </g>
     </g>
    </g>
    <g id="xtick_25">
     <g id="line2d_25">
      <g>
       <use xlink:href="#m7afc6c52c7" x="219.544813" y="210.054281" style="stroke: #000000; stroke-width: 0.6"/>
      </g>
     </g>
    </g>
    <g id="xtick_26">
     <g id="line2d_26">
      <g>
       <use xlink:href="#m7afc6c52c7" x="224.607869" y="210.054281" style="stroke: #000000; stroke-width: 0.6"/>
      </g>
     </g>
    </g>
    <g id="xtick_27">
     <g id="line2d_27">
      <g>
       <use xlink:href="#m7afc6c52c7" x="228.888621" y="210.054281" style="stroke: #000000; stroke-width: 0.6"/>
      </g>
     </g>
    </g>
    <g id="xtick_28">
     <g id="line2d_28">
      <g>
       <use xlink:href="#m7afc6c52c7" x="232.596778" y="210.054281" style="stroke: #000000; stroke-width: 0.6"/>
      </g>
     </g>
    </g>
    <g id="xtick_29">
     <g id="line2d_29">
      <g>
       <use xlink:href="#m7afc6c52c7" x="235.867604" y="210.054281" style="stroke: #000000; stroke-width: 0.6"/>
      </g>
     </g>
    </g>
    <g id="xtick_30">
     <g id="line2d_30">
      <g>
       <use xlink:href="#m7afc6c52c7" x="258.042101" y="210.054281" style="stroke: #000000; stroke-width: 0.6"/>
      </g>
     </g>
    </g>
    <g id="xtick_31">
     <g id="line2d_31">
      <g>
       <use xlink:href="#m7afc6c52c7" x="269.301836" y="210.054281" style="stroke: #000000; stroke-width: 0.6"/>
      </g>
     </g>
    </g>
    <g id="xtick_32">
     <g id="line2d_32">
      <g>
       <use xlink:href="#m7afc6c52c7" x="277.290745" y="210.054281" style="stroke: #000000; stroke-width: 0.6"/>
      </g>
     </g>
    </g>
    <g id="xtick_33">
     <g id="line2d_33">
      <g>
       <use xlink:href="#m7afc6c52c7" x="283.487424" y="210.054281" style="stroke: #000000; stroke-width: 0.6"/>
      </g>
     </g>
    </g>
    <g id="xtick_34">
     <g id="line2d_34">
      <g>
       <use xlink:href="#m7afc6c52c7" x="288.55048" y="210.054281" style="stroke: #000000; stroke-width: 0.6"/>
      </g>
     </g>
    </g>
    <g id="xtick_35">
     <g id="line2d_35">
      <g>
       <use xlink:href="#m7afc6c52c7" x="292.831232" y="210.054281" style="stroke: #000000; stroke-width: 0.6"/>
      </g>
     </g>
    </g>
    <g id="xtick_36">
     <g id="line2d_36">
      <g>
       <use xlink:href="#m7afc6c52c7" x="296.539389" y="210.054281" style="stroke: #000000; stroke-width: 0.6"/>
      </g>
     </g>
    </g>
    <g id="xtick_37">
     <g id="line2d_37">
      <g>
       <use xlink:href="#m7afc6c52c7" x="299.810215" y="210.054281" style="stroke: #000000; stroke-width: 0.6"/>
      </g>
     </g>
    </g>
    <g id="xtick_38">
     <g id="line2d_38">
      <g>
       <use xlink:href="#m7afc6c52c7" x="321.984712" y="210.054281" style="stroke: #000000; stroke-width: 0.6"/>
      </g>
     </g>
    </g>
    <g id="xtick_39">
     <g id="line2d_39">
      <g>
       <use xlink:href="#m7afc6c52c7" x="333.244447" y="210.054281" style="stroke: #000000; stroke-width: 0.6"/>
      </g>
     </g>
    </g>
    <g id="text_6">
     <!-- time budget per instance (s) -->
     <g transform="translate(120.215938 238.330844) scale(0.1 -0.1)">
      <defs>
       <path id="DejaVuSerif-74" d="M 691 2988 
L 184 2988 
L 184 3322 
L 691 3322 
L 691 4353 
L 1269 4353 
L 1269 3322 
L 2350 3322 
L 2350 2988 
L 1269 2988 
L 1269 878 
Q 1269 456 1350 337 
Q 1431 219 1650 219 
Q 1875 219 1978 351 
Q 2081 484 2088 781 
L 2522 781 
Q 2497 328 2275 118 
Q 2053 -91 1600 -91 
Q 1103 -91 897 129 
Q 691 350 691 878 
L 691 2988 
z
" transform="scale(0.015625)"/>
       <path id="DejaVuSerif-69" d="M 622 4353 
Q 622 4497 726 4603 
Q 831 4709 978 4709 
Q 1122 4709 1226 4603 
Q 1331 4497 1331 4353 
Q 1331 4206 1228 4103 
Q 1125 4000 978 4000 
Q 831 4000 726 4103 
Q 622 4206 622 4353 
z
M 1356 331 
L 1900 331 
L 1900 0 
L 231 0 
L 231 331 
L 781 331 
L 781 2988 
L 231 2988 
L 231 3322 
L 1356 3322 
L 1356 331 
z
" transform="scale(0.015625)"/>
       <path id="DejaVuSerif-6d" d="M 3316 2675 
Q 3481 3041 3739 3227 
Q 3997 3413 4341 3413 
Q 4863 3413 5119 3089 
Q 5375 2766 5375 2113 
L 5375 331 
L 5894 331 
L 5894 0 
L 4300 0 
L 4300 331 
L 4800 331 
L 4800 2047 
Q 4800 2556 4650 2772 
Q 4500 2988 4153 2988 
Q 3769 2988 3567 2697 
Q 3366 2406 3366 1850 
L 3366 331 
L 3866 331 
L 3866 0 
L 2291 0 
L 2291 331 
L 2791 331 
L 2791 2069 
Q 2791 2566 2641 2777 
Q 2491 2988 2144 2988 
Q 1759 2988 1557 2697 
Q 1356 2406 1356 1850 
L 1356 331 
L 1856 331 
L 1856 0 
L 263 0 
L 263 331 
L 781 331 
L 781 2994 
L 231 2994 
L 231 3322 
L 1356 3322 
L 1356 2731 
Q 1516 3063 1762 3238 
Q 2009 3413 2322 3413 
Q 2709 3413 2968 3220 
Q 3228 3028 3316 2675 
z
" transform="scale(0.015625)"/>
       <path id="DejaVuSerif-65" d="M 3469 1600 
L 991 1600 
L 991 1575 
Q 991 903 1244 561 
Q 1497 219 1991 219 
Q 2369 219 2611 417 
Q 2853 616 2950 1006 
L 3413 1006 
Q 3275 459 2904 184 
Q 2534 -91 1931 -91 
Q 1203 -91 761 389 
Q 319 869 319 1663 
Q 319 2450 753 2931 
Q 1188 3413 1894 3413 
Q 2647 3413 3050 2948 
Q 3453 2484 3469 1600 
z
M 2791 1931 
Q 2772 2513 2545 2808 
Q 2319 3103 1894 3103 
Q 1497 3103 1269 2806 
Q 1041 2509 991 1931 
L 2791 1931 
z
" transform="scale(0.015625)"/>
       <path id="DejaVuSerif-20" transform="scale(0.015625)"/>
       <path id="DejaVuSerif-62" d="M 738 331 
L 738 4531 
L 184 4531 
L 184 4863 
L 1313 4863 
L 1313 2803 
Q 1481 3116 1742 3264 
Q 2003 3413 2388 3413 
Q 3000 3413 3387 2928 
Q 3775 2444 3775 1663 
Q 3775 881 3387 395 
Q 3000 -91 2388 -91 
Q 2003 -91 1742 57 
Q 1481 206 1313 519 
L 1313 0 
L 184 0 
L 184 331 
L 738 331 
z
M 1313 1497 
Q 1313 897 1542 583 
Q 1772 269 2209 269 
Q 2650 269 2876 622 
Q 3103 975 3103 1663 
Q 3103 2353 2876 2703 
Q 2650 3053 2209 3053 
Q 1772 3053 1542 2737 
Q 1313 2422 1313 1825 
L 1313 1497 
z
" transform="scale(0.015625)"/>
       <path id="DejaVuSerif-75" d="M 2266 3322 
L 3341 3322 
L 3341 331 
L 3884 331 
L 3884 0 
L 2766 0 
L 2766 588 
Q 2606 256 2353 82 
Q 2100 -91 1766 -91 
Q 1213 -91 952 223 
Q 691 538 691 1209 
L 691 2988 
L 172 2988 
L 172 3322 
L 1269 3322 
L 1269 1388 
Q 1269 781 1417 556 
Q 1566 331 1947 331 
Q 2347 331 2556 625 
Q 2766 919 2766 1478 
L 2766 2988 
L 2266 2988 
L 2266 3322 
z
" transform="scale(0.015625)"/>
       <path id="DejaVuSerif-64" d="M 3359 331 
L 3909 331 
L 3909 0 
L 2784 0 
L 2784 519 
Q 2616 206 2355 57 
Q 2094 -91 1709 -91 
Q 1097 -91 708 395 
Q 319 881 319 1663 
Q 319 2444 706 2928 
Q 1094 3413 1709 3413 
Q 2094 3413 2355 3264 
Q 2616 3116 2784 2803 
L 2784 4531 
L 2241 4531 
L 2241 4863 
L 3359 4863 
L 3359 331 
z
M 2784 1497 
L 2784 1825 
Q 2784 2422 2554 2737 
Q 2325 3053 1888 3053 
Q 1444 3053 1217 2703 
Q 991 2353 991 1663 
Q 991 975 1217 622 
Q 1444 269 1888 269 
Q 2325 269 2554 583 
Q 2784 897 2784 1497 
z
" transform="scale(0.015625)"/>
       <path id="DejaVuSerif-67" d="M 3359 2988 
L 3359 72 
Q 3359 -644 2965 -1033 
Q 2572 -1422 1844 -1422 
Q 1516 -1422 1216 -1362 
Q 916 -1303 641 -1184 
L 641 -488 
L 941 -488 
Q 997 -813 1206 -963 
Q 1416 -1113 1806 -1113 
Q 2313 -1113 2548 -827 
Q 2784 -541 2784 72 
L 2784 519 
Q 2616 206 2355 57 
Q 2094 -91 1709 -91 
Q 1097 -91 708 395 
Q 319 881 319 1663 
Q 319 2444 706 2928 
Q 1094 3413 1709 3413 
Q 2094 3413 2355 3264 
Q 2616 3116 2784 2803 
L 2784 3322 
L 3909 3322 
L 3909 2988 
L 3359 2988 
z
M 2784 1825 
Q 2784 2422 2554 2737 
Q 2325 3053 1888 3053 
Q 1444 3053 1217 2703 
Q 991 2353 991 1663 
Q 991 975 1217 622 
Q 1444 269 1888 269 
Q 2325 269 2554 583 
Q 2784 897 2784 1497 
L 2784 1825 
z
" transform="scale(0.015625)"/>
       <path id="DejaVuSerif-70" d="M 1313 1825 
L 1313 1497 
Q 1313 897 1542 583 
Q 1772 269 2209 269 
Q 2650 269 2876 622 
Q 3103 975 3103 1663 
Q 3103 2353 2876 2703 
Q 2650 3053 2209 3053 
Q 1772 3053 1542 2737 
Q 1313 2422 1313 1825 
z
M 738 2988 
L 184 2988 
L 184 3322 
L 1313 3322 
L 1313 2803 
Q 1481 3116 1742 3264 
Q 2003 3413 2388 3413 
Q 3000 3413 3387 2928 
Q 3775 2444 3775 1663 
Q 3775 881 3387 395 
Q 3000 -91 2388 -91 
Q 2003 -91 1742 57 
Q 1481 206 1313 519 
L 1313 -997 
L 1856 -997 
L 1856 -1331 
L 184 -1331 
L 184 -997 
L 738 -997 
L 738 2988 
z
" transform="scale(0.015625)"/>
       <path id="DejaVuSerif-72" d="M 3059 3328 
L 3059 2497 
L 2728 2497 
Q 2713 2744 2591 2866 
Q 2469 2988 2234 2988 
Q 1809 2988 1582 2694 
Q 1356 2400 1356 1850 
L 1356 331 
L 2022 331 
L 2022 0 
L 263 0 
L 263 331 
L 781 331 
L 781 2994 
L 231 2994 
L 231 3322 
L 1356 3322 
L 1356 2731 
Q 1525 3078 1790 3245 
Q 2056 3413 2438 3413 
Q 2578 3413 2733 3391 
Q 2888 3369 3059 3328 
z
" transform="scale(0.015625)"/>
       <path id="DejaVuSerif-6e" d="M 263 0 
L 263 331 
L 781 331 
L 781 2988 
L 231 2988 
L 231 3322 
L 1356 3322 
L 1356 2731 
Q 1516 3069 1770 3241 
Q 2025 3413 2363 3413 
Q 2913 3413 3172 3097 
Q 3431 2781 3431 2113 
L 3431 331 
L 3944 331 
L 3944 0 
L 2356 0 
L 2356 331 
L 2853 331 
L 2853 1931 
Q 2853 2541 2703 2767 
Q 2553 2994 2175 2994 
Q 1775 2994 1565 2701 
Q 1356 2409 1356 1850 
L 1356 331 
L 1856 331 
L 1856 0 
L 263 0 
z
" transform="scale(0.015625)"/>
       <path id="DejaVuSerif-73" d="M 359 184 
L 359 959 
L 691 959 
Q 703 588 923 403 
Q 1144 219 1575 219 
Q 1963 219 2166 364 
Q 2369 509 2369 788 
Q 2369 1006 2220 1140 
Q 2072 1275 1594 1428 
L 1178 1569 
Q 750 1706 558 1912 
Q 366 2119 366 2438 
Q 366 2894 700 3153 
Q 1034 3413 1625 3413 
Q 1888 3413 2178 3344 
Q 2469 3275 2778 3144 
L 2778 2419 
L 2447 2419 
Q 2434 2741 2221 2922 
Q 2009 3103 1644 3103 
Q 1281 3103 1095 2975 
Q 909 2847 909 2591 
Q 909 2381 1050 2254 
Q 1191 2128 1613 1997 
L 2069 1856 
Q 2541 1709 2748 1489 
Q 2956 1269 2956 922 
Q 2956 450 2595 179 
Q 2234 -91 1600 -91 
Q 1278 -91 972 -22 
Q 666 47 359 184 
z
" transform="scale(0.015625)"/>
       <path id="DejaVuSerif-61" d="M 2547 1044 
L 2547 1747 
L 1806 1747 
Q 1378 1747 1168 1562 
Q 959 1378 959 997 
Q 959 650 1171 447 
Q 1384 244 1747 244 
Q 2106 244 2326 466 
Q 2547 688 2547 1044 
z
M 3122 2075 
L 3122 331 
L 3634 331 
L 3634 0 
L 2547 0 
L 2547 359 
Q 2356 128 2106 18 
Q 1856 -91 1522 -91 
Q 969 -91 644 203 
Q 319 497 319 997 
Q 319 1513 691 1797 
Q 1063 2081 1741 2081 
L 2547 2081 
L 2547 2309 
Q 2547 2688 2317 2895 
Q 2088 3103 1672 3103 
Q 1328 3103 1125 2947 
Q 922 2791 872 2484 
L 575 2484 
L 575 3156 
Q 875 3284 1158 3348 
Q 1441 3413 1709 3413 
Q 2400 3413 2761 3070 
Q 3122 2728 3122 2075 
z
" transform="scale(0.015625)"/>
       <path id="DejaVuSerif-63" d="M 3291 997 
Q 3169 466 2822 187 
Q 2475 -91 1925 -91 
Q 1200 -91 759 389 
Q 319 869 319 1663 
Q 319 2459 759 2936 
Q 1200 3413 1925 3413 
Q 2241 3413 2553 3339 
Q 2866 3266 3181 3116 
L 3181 2266 
L 2847 2266 
Q 2781 2703 2561 2903 
Q 2341 3103 1931 3103 
Q 1466 3103 1228 2742 
Q 991 2381 991 1663 
Q 991 944 1227 581 
Q 1463 219 1931 219 
Q 2303 219 2525 412 
Q 2747 606 2828 997 
L 3291 997 
z
" transform="scale(0.015625)"/>
       <path id="DejaVuSerif-28" d="M 2041 -997 
Q 1281 -656 893 83 
Q 506 822 506 1931 
Q 506 3044 893 3783 
Q 1281 4522 2041 4863 
L 2041 4556 
Q 1559 4225 1350 3623 
Q 1141 3022 1141 1931 
Q 1141 844 1350 242 
Q 1559 -359 2041 -691 
L 2041 -997 
z
" transform="scale(0.015625)"/>
       <path id="DejaVuSerif-29" d="M 453 -997 
L 453 -691 
Q 934 -359 1145 242 
Q 1356 844 1356 1931 
Q 1356 3022 1145 3623 
Q 934 4225 453 4556 
L 453 4863 
Q 1216 4522 1603 3783 
Q 1991 3044 1991 1931 
Q 1991 822 1603 83 
Q 1216 -656 453 -997 
z
" transform="scale(0.015625)"/>
      </defs>
      <use xlink:href="#DejaVuSerif-74"/>
      <use xlink:href="#DejaVuSerif-69" x="40.185547"/>
      <use xlink:href="#DejaVuSerif-6d" x="72.167969"/>
      <use xlink:href="#DejaVuSerif-65" x="166.992188"/>
      <use xlink:href="#DejaVuSerif-20" x="226.171875"/>
      <use xlink:href="#DejaVuSerif-62" x="257.958984"/>
      <use xlink:href="#DejaVuSerif-75" x="321.972656"/>
      <use xlink:href="#DejaVuSerif-64" x="386.376953"/>
      <use xlink:href="#DejaVuSerif-67" x="450.390625"/>
      <use xlink:href="#DejaVuSerif-65" x="514.404297"/>
      <use xlink:href="#DejaVuSerif-74" x="573.583984"/>
      <use xlink:href="#DejaVuSerif-20" x="613.769531"/>
      <use xlink:href="#DejaVuSerif-70" x="645.556641"/>
      <use xlink:href="#DejaVuSerif-65" x="709.570312"/>
      <use xlink:href="#DejaVuSerif-72" x="768.75"/>
      <use xlink:href="#DejaVuSerif-20" x="816.552734"/>
      <use xlink:href="#DejaVuSerif-69" x="848.339844"/>
      <use xlink:href="#DejaVuSerif-6e" x="880.322266"/>
      <use xlink:href="#DejaVuSerif-73" x="944.726562"/>
      <use xlink:href="#DejaVuSerif-74" x="996.044922"/>
      <use xlink:href="#DejaVuSerif-61" x="1036.230469"/>
      <use xlink:href="#DejaVuSerif-6e" x="1095.849609"/>
      <use xlink:href="#DejaVuSerif-63" x="1160.253906"/>
      <use xlink:href="#DejaVuSerif-65" x="1216.259766"/>
      <use xlink:href="#DejaVuSerif-20" x="1275.439453"/>
      <use xlink:href="#DejaVuSerif-28" x="1307.226562"/>
      <use xlink:href="#DejaVuSerif-73" x="1346.240234"/>
      <use xlink:href="#DejaVuSerif-29" x="1397.558594"/>
     </g>
    </g>
   </g>
   <g id="matplotlib.axis_2">
    <g id="ytick_1">
     <g id="line2d_40">
      <defs>
       <path id="m9cdc9980ed" d="M 0 0 
L -3.5 0 
" style="stroke: #000000; stroke-width: 0.8"/>
      </defs>
      <g>
       <use xlink:href="#m9cdc9980ed" x="46.965625" y="210.054281" style="stroke: #000000; stroke-width: 0.8"/>
      </g>
     </g>
     <g id="text_7">
      <!-- 0 -->
      <g transform="translate(33.603125 213.8535) scale(0.1 -0.1)">
       <use xlink:href="#DejaVuSerif-30"/>
      </g>
     </g>
    </g>
    <g id="ytick_2">
     <g id="line2d_41">
      <g>
       <use xlink:href="#m9cdc9980ed" x="46.965625" y="171.554281" style="stroke: #000000; stroke-width: 0.8"/>
      </g>
     </g>
     <g id="text_8">
      <!-- 100 -->
      <g transform="translate(20.878125 175.3535) scale(0.1 -0.1)">
       <use xlink:href="#DejaVuSerif-31"/>
       <use xlink:href="#DejaVuSerif-30" x="63.623047"/>
       <use xlink:href="#DejaVuSerif-30" x="127.246094"/>
      </g>
     </g>
    </g>
    <g id="ytick_3">
     <g id="line2d_42">
      <g>
       <use xlink:href="#m9cdc9980ed" x="46.965625" y="133.054281" style="stroke: #000000; stroke-width: 0.8"/>
      </g>
     </g>
     <g id="text_9">
      <!-- 200 -->
      <g transform="translate(20.878125 136.8535) scale(0.1 -0.1)">
       <use xlink:href="#DejaVuSerif-32"/>
       <use xlink:href="#DejaVuSerif-30" x="63.623047"/>
       <use xlink:href="#DejaVuSerif-30" x="127.246094"/>
      </g>
     </g>
    </g>
    <g id="ytick_4">
     <g id="line2d_43">
      <g>
       <use xlink:href="#m9cdc9980ed" x="46.965625" y="94.554281" style="stroke: #000000; stroke-width: 0.8"/>
      </g>
     </g>
     <g id="text_10">
      <!-- 300 -->
      <g transform="translate(20.878125 98.3535) scale(0.1 -0.1)">
       <defs>
        <path id="DejaVuSerif-33" d="M 622 4469 
Q 988 4606 1323 4678 
Q 1659 4750 1953 4750 
Q 2638 4750 3022 4454 
Q 3406 4159 3406 3634 
Q 3406 3213 3140 2930 
Q 2875 2647 2388 2547 
Q 2963 2466 3280 2130 
Q 3597 1794 3597 1259 
Q 3597 606 3158 257 
Q 2719 -91 1894 -91 
Q 1528 -91 1179 -12 
Q 831 66 488 225 
L 488 1131 
L 838 1131 
Q 869 681 1141 450 
Q 1413 219 1906 219 
Q 2384 219 2661 495 
Q 2938 772 2938 1253 
Q 2938 1803 2653 2086 
Q 2369 2369 1819 2369 
L 1522 2369 
L 1522 2688 
L 1678 2688 
Q 2225 2688 2498 2914 
Q 2772 3141 2772 3597 
Q 2772 4006 2547 4223 
Q 2322 4441 1900 4441 
Q 1478 4441 1245 4241 
Q 1013 4041 972 3647 
L 622 3647 
L 622 4469 
z
" transform="scale(0.015625)"/>
       </defs>
       <use xlink:href="#DejaVuSerif-33"/>
       <use xlink:href="#DejaVuSerif-30" x="63.623047"/>
       <use xlink:href="#DejaVuSerif-30" x="127.246094"/>
      </g>
     </g>
    </g>
    <g id="ytick_5">
     <g id="line2d_44">
      <g>
       <use xlink:href="#m9cdc9980ed" x="46.965625" y="56.054281" style="stroke: #000000; stroke-width: 0.8"/>
      </g>
     </g>
     <g id="text_11">
      <!-- 400 -->
      <g transform="translate(20.878125 59.8535) scale(0.1 -0.1)">
       <defs>
        <path id="DejaVuSerif-34" d="M 2234 1581 
L 2234 4063 
L 641 1581 
L 2234 1581 
z
M 3609 0 
L 1484 0 
L 1484 331 
L 2234 331 
L 2234 1247 
L 197 1247 
L 197 1588 
L 2241 4750 
L 2859 4750 
L 2859 1581 
L 3750 1581 
L 3750 1247 
L 2859 1247 
L 2859 331 
L 3609 331 
L 3609 0 
z
" transform="scale(0.015625)"/>
       </defs>
       <use xlink:href="#DejaVuSerif-34"/>
       <use xlink:href="#DejaVuSerif-30" x="63.623047"/>
       <use xlink:href="#DejaVuSerif-30" x="127.246094"/>
      </g>
     </g>
    </g>
    <g id="text_12">
     <!-- instances solved (of 480) -->
     <g transform="translate(14.798438 178.960969) rotate(-90) scale(0.1 -0.1)">
      <defs>
       <path id="DejaVuSerif-6f" d="M 1925 219 
Q 2388 219 2623 584 
Q 2859 950 2859 1663 
Q 2859 2375 2623 2739 
Q 2388 3103 1925 3103 
Q 1463 3103 1227 2739 
Q 991 2375 991 1663 
Q 991 950 1228 584 
Q 1466 219 1925 219 
z
M 1925 -91 
Q 1200 -91 759 389 
Q 319 869 319 1663 
Q 319 2456 758 2934 
Q 1197 3413 1925 3413 
Q 2653 3413 3092 2934 
Q 3531 2456 3531 1663 
Q 3531 869 3092 389 
Q 2653 -91 1925 -91 
z
" transform="scale(0.015625)"/>
       <path id="DejaVuSerif-6c" d="M 1313 331 
L 1856 331 
L 1856 0 
L 184 0 
L 184 331 
L 738 331 
L 738 4531 
L 184 4531 
L 184 4863 
L 1313 4863 
L 1313 331 
z
" transform="scale(0.015625)"/>
       <path id="DejaVuSerif-76" d="M 1581 0 
L 359 2988 
L -19 2988 
L -19 3322 
L 1509 3322 
L 1509 2988 
L 978 2988 
L 1913 703 
L 2847 2988 
L 2350 2988 
L 2350 3322 
L 3597 3322 
L 3597 2988 
L 3225 2988 
L 2003 0 
L 1581 0 
z
" transform="scale(0.015625)"/>
       <path id="DejaVuSerif-66" d="M 2753 4078 
L 2450 4078 
Q 2447 4313 2317 4434 
Q 2188 4556 1941 4556 
Q 1619 4556 1487 4379 
Q 1356 4203 1356 3750 
L 1356 3322 
L 2284 3322 
L 2284 2988 
L 1356 2988 
L 1356 331 
L 2094 331 
L 2094 0 
L 231 0 
L 231 331 
L 781 331 
L 781 2988 
L 231 2988 
L 231 3322 
L 781 3322 
L 781 3738 
Q 781 4294 1070 4578 
Q 1359 4863 1919 4863 
Q 2128 4863 2337 4825 
Q 2547 4788 2753 4709 
L 2753 4078 
z
" transform="scale(0.015625)"/>
       <path id="DejaVuSerif-38" d="M 2981 1275 
Q 2981 1775 2732 2051 
Q 2484 2328 2034 2328 
Q 1584 2328 1336 2051 
Q 1088 1775 1088 1275 
Q 1088 772 1336 495 
Q 1584 219 2034 219 
Q 2484 219 2732 495 
Q 2981 772 2981 1275 
z
M 2853 3541 
Q 2853 3966 2637 4203 
Q 2422 4441 2034 4441 
Q 1650 4441 1433 4203 
Q 1216 3966 1216 3541 
Q 1216 3113 1433 2875 
Q 1650 2638 2034 2638 
Q 2422 2638 2637 2875 
Q 2853 3113 2853 3541 
z
M 2516 2484 
Q 3047 2413 3344 2092 
Q 3641 1772 3641 1275 
Q 3641 619 3225 264 
Q 2809 -91 2034 -91 
Q 1263 -91 845 264 
Q 428 619 428 1275 
Q 428 1772 725 2092 
Q 1022 2413 1556 2484 
Q 1084 2569 832 2842 
Q 581 3116 581 3541 
Q 581 4103 968 4426 
Q 1356 4750 2034 4750 
Q 2713 4750 3100 4426 
Q 3488 4103 3488 3541 
Q 3488 3116 3236 2842 
Q 2984 2569 2516 2484 
z
" transform="scale(0.015625)"/>
      </defs>
      <use xlink:href="#DejaVuSerif-69"/>
      <use xlink:href="#DejaVuSerif-6e" x="31.982422"/>
      <use xlink:href="#DejaVuSerif-73" x="96.386719"/>
      <use xlink:href="#DejaVuSerif-74" x="147.705078"/>
      <use xlink:href="#DejaVuSerif-61" x="187.890625"/>
      <use xlink:href="#DejaVuSerif-6e" x="247.509766"/>
      <use xlink:href="#DejaVuSerif-63" x="311.914062"/>
      <use xlink:href="#DejaVuSerif-65" x="367.919922"/>
      <use xlink:href="#DejaVuSerif-73" x="427.099609"/>
      <use xlink:href="#DejaVuSerif-20" x="478.417969"/>
      <use xlink:href="#DejaVuSerif-73" x="510.205078"/>
      <use xlink:href="#DejaVuSerif-6f" x="561.523438"/>
      <use xlink:href="#DejaVuSerif-6c" x="621.728516"/>
      <use xlink:href="#DejaVuSerif-76" x="653.710938"/>
      <use xlink:href="#DejaVuSerif-65" x="710.205078"/>
      <use xlink:href="#DejaVuSerif-64" x="769.384766"/>
      <use xlink:href="#DejaVuSerif-20" x="833.398438"/>
      <use xlink:href="#DejaVuSerif-28" x="865.185547"/>
      <use xlink:href="#DejaVuSerif-6f" x="904.199219"/>
      <use xlink:href="#DejaVuSerif-66" x="964.404297"/>
      <use xlink:href="#DejaVuSerif-20" x="1001.416016"/>
      <use xlink:href="#DejaVuSerif-34" x="1033.203125"/>
      <use xlink:href="#DejaVuSerif-38" x="1096.826172"/>
      <use xlink:href="#DejaVuSerif-30" x="1160.449219"/>
      <use xlink:href="#DejaVuSerif-29" x="1224.072266"/>
     </g>
    </g>
   </g>
   <g id="line2d_45">
    <path d="M 46.965625 209.669281 
L 46.965625 173.094281 
L 47.642937 172.709281 
L 50.24879 172.324281 
L 50.581119 171.939281 
L 55.399914 171.554281 
L 58.446452 171.169281 
L 61.11976 170.399281 
L 64.318914 169.629281 
L 67.556999 168.859281 
L 71.95231 168.089281 
L 72.684958 167.319281 
L 74.085078 166.934281 
L 76.073455 166.549281 
L 77.048566 166.164281 
L 78.866785 165.779281 
L 90.797763 164.624281 
L 93.283111 164.239281 
L 96.544349 163.854281 
L 96.816352 163.469281 
L 99.351937 163.084281 
L 100.209606 162.699281 
L 100.740928 162.314281 
L 101.556662 161.929281 
L 101.949218 161.544281 
L 102.081721 161.159281 
L 105.195408 160.774281 
L 105.872881 160.389281 
L 108.767437 159.619281 
L 109.301319 159.234281 
L 110.182481 158.849281 
L 117.585703 158.079281 
L 120.634996 157.309281 
L 125.764523 156.924281 
L 126.447771 156.539281 
L 132.583001 156.154281 
L 134.036247 155.769281 
L 134.867342 154.614281 
L 136.847117 153.459281 
L 136.940913 153.074281 
L 144.174732 152.689281 
L 145.310025 152.304281 
L 151.561425 151.919281 
L 154.499109 151.534281 
L 156.02846 151.149281 
L 162.620331 150.764281 
L 164.423737 150.379281 
L 167.226541 149.994281 
L 172.693785 149.609281 
L 176.370027 148.839281 
L 176.742177 148.454281 
L 179.582629 148.069281 
L 185.563152 147.684281 
L 186.517652 147.299281 
L 188.110997 146.914281 
L 196.426957 146.529281 
L 197.096455 146.144281 
L 205.262417 145.759281 
L 208.446618 145.374281 
L 209.671459 144.989281 
L 212.043678 144.604281 
L 219.283663 144.219281 
L 232.171082 143.834281 
L 235.243124 143.449281 
L 241.761738 142.294281 
L 243.475312 141.524281 
L 246.704293 141.139281 
L 247.64598 140.754281 
L 250.45114 140.369281 
L 251.164769 139.984281 
L 253.433893 139.599281 
L 256.493912 139.214281 
L 261.128168 138.829281 
L 262.591552 138.444281 
L 266.284293 138.059281 
L 268.758088 137.674281 
L 277.395863 136.904281 
L 279.905484 136.519281 
L 289.388036 135.749281 
L 290.002623 135.364281 
L 293.956413 134.979281 
L 294.477149 134.594281 
L 294.628309 134.209281 
L 294.921082 133.824281 
L 309.497254 133.439281 
L 310.334155 133.054281 
L 313.731288 132.284281 
L 314.664893 131.899281 
L 316.516383 131.514281 
L 319.215163 131.129281 
L 331.401815 129.974281 
L 331.842535 129.589281 
L 331.842535 129.589281 
" clip-path="url(#pb176581b7c)" style="fill: none; stroke: #000000; stroke-width: 1.4; stroke-linecap: square"/>
    <defs>
     <path id="m4be6cdd5bb" d="M 0 2.25 
C 0.596707 2.25 1.169055 2.012926 1.59099 1.59099 
C 2.012926 1.169055 2.25 0.596707 2.25 0 
C 2.25 -0.596707 2.012926 -1.169055 1.59099 -1.59099 
C 1.169055 -2.012926 0.596707 -2.25 0 -2.25 
C -0.596707 -2.25 -1.169055 -2.012926 -1.59099 -1.59099 
C -2.012926 -1.169055 -2.25 -0.596707 -2.25 0 
C -2.25 0.596707 -2.012926 1.169055 -1.59099 1.59099 
C -1.169055 2.012926 -0.596707 2.25 0 2.25 
z
" style="stroke: #000000"/>
    </defs>
    <g clip-path="url(#pb176581b7c)">
     <use xlink:href="#m4be6cdd5bb" x="46.965625" y="209.669281" style="fill: #ffffff; stroke: #000000"/>
     <use xlink:href="#m4be6cdd5bb" x="46.965625" y="200.814281" style="fill: #ffffff; stroke: #000000"/>
     <use xlink:href="#m4be6cdd5bb" x="46.965625" y="191.959281" style="fill: #ffffff; stroke: #000000"/>
     <use xlink:href="#m4be6cdd5bb" x="46.965625" y="183.104281" style="fill: #ffffff; stroke: #000000"/>
     <use xlink:href="#m4be6cdd5bb" x="46.965625" y="174.249281" style="fill: #ffffff; stroke: #000000"/>
     <use xlink:href="#m4be6cdd5bb" x="83.003436" y="165.394281" style="fill: #ffffff; stroke: #000000"/>
     <use xlink:href="#m4be6cdd5bb" x="126.447771" y="156.539281" style="fill: #ffffff; stroke: #000000"/>
     <use xlink:href="#m4be6cdd5bb" x="185.563152" y="147.684281" style="fill: #ffffff; stroke: #000000"/>
     <use xlink:href="#m4be6cdd5bb" x="261.128168" y="138.829281" style="fill: #ffffff; stroke: #000000"/>
     <use xlink:href="#m4be6cdd5bb" x="331.401815" y="129.974281" style="fill: #ffffff; stroke: #000000"/>
    </g>
   </g>
   <g id="line2d_46">
    <path d="M 46.965625 209.669281 
L 46.965625 182.719281 
L 47.427738 182.334281 
L 48.085205 181.949281 
L 48.125717 181.564281 
L 48.796965 181.179281 
L 49.101799 180.794281 
L 49.148302 180.409281 
L 50.599397 180.024281 
L 50.921561 179.639281 
L 50.980982 179.254281 
L 51.186886 178.869281 
L 51.844093 178.484281 
L 52.191582 178.099281 
L 52.368624 177.714281 
L 53.447861 177.329281 
L 54.926542 176.944281 
L 55.432278 176.559281 
L 55.447424 176.174281 
L 55.758524 175.789281 
L 55.889326 175.404281 
L 56.54979 174.634281 
L 58.970431 174.249281 
L 60.76149 173.479281 
L 62.833291 173.094281 
L 64.508399 172.324281 
L 64.71595 171.939281 
L 67.385678 171.554281 
L 68.686919 171.169281 
L 71.300688 170.784281 
L 72.790348 170.399281 
L 79.003436 170.014281 
L 79.865283 169.629281 
L 80.319319 169.244281 
L 80.403661 168.859281 
L 83.681196 168.089281 
L 84.43071 167.704281 
L 87.751792 166.934281 
L 88.029526 166.549281 
L 91.864994 165.779281 
L 102.186312 165.394281 
L 104.376723 164.624281 
L 108.152123 164.239281 
L 110.529409 163.854281 
L 111.371168 163.469281 
L 111.411831 163.084281 
L 111.792906 162.699281 
L 114.569282 162.314281 
L 115.169066 161.929281 
L 115.476068 161.159281 
L 116.01176 160.774281 
L 117.993835 160.389281 
L 118.254885 160.004281 
L 118.964682 159.619281 
L 124.280477 159.234281 
L 125.16992 158.849281 
L 132.637276 157.694281 
L 133.560805 157.309281 
L 136.231325 156.539281 
L 138.162064 156.154281 
L 139.213174 155.384281 
L 144.844318 154.999281 
L 146.626002 154.229281 
L 149.022305 153.844281 
L 149.924182 153.459281 
L 150.504824 153.074281 
L 152.963726 152.689281 
L 160.531921 151.919281 
L 168.103551 151.534281 
L 168.946121 150.764281 
L 170.080845 150.379281 
L 177.475378 149.994281 
L 181.637273 149.609281 
L 182.679059 149.224281 
L 187.117731 148.839281 
L 187.995166 148.454281 
L 188.062203 148.069281 
L 197.504398 147.684281 
L 199.195734 147.299281 
L 204.149129 146.914281 
L 204.774668 146.529281 
L 206.921403 146.144281 
L 212.61799 145.759281 
L 216.379977 145.374281 
L 216.850641 144.989281 
L 221.951563 144.604281 
L 223.923967 144.219281 
L 234.327325 143.834281 
L 236.400455 143.449281 
L 246.613289 143.064281 
L 247.075659 142.679281 
L 248.535083 142.294281 
L 248.752835 141.909281 
L 250.3504 141.524281 
L 252.895165 141.139281 
L 253.135449 140.754281 
L 256.508295 140.369281 
L 257.493397 139.984281 
L 257.685617 139.599281 
L 263.913305 139.214281 
L 266.099379 138.829281 
L 267.338362 138.444281 
L 267.610038 138.059281 
L 280.058353 137.674281 
L 282.243253 137.289281 
L 283.518897 136.904281 
L 283.765119 136.519281 
L 292.227099 135.749281 
L 292.60198 135.364281 
L 295.168201 134.979281 
L 300.409246 134.594281 
L 301.29382 134.209281 
L 306.29763 133.824281 
L 313.686582 133.439281 
L 314.204035 133.054281 
L 314.244798 132.669281 
L 314.605552 132.284281 
L 317.704839 131.899281 
L 319.187536 131.514281 
L 319.618303 131.129281 
L 331.12046 130.359281 
L 332.630757 129.974281 
L 332.630757 129.974281 
" clip-path="url(#pb176581b7c)" style="fill: none; stroke-dasharray: 5.18,2.24; stroke-dashoffset: 0; stroke: #595959; stroke-width: 1.4"/>
    <defs>
     <path id="mfa9566449e" d="M -2.25 2.25 
L 2.25 2.25 
L 2.25 -2.25 
L -2.25 -2.25 
z
" style="stroke: #595959; stroke-linejoin: miter"/>
    </defs>
    <g clip-path="url(#pb176581b7c)">
     <use xlink:href="#mfa9566449e" x="46.965625" y="209.669281" style="fill: #ffffff; stroke: #595959; stroke-linejoin: miter"/>
     <use xlink:href="#mfa9566449e" x="46.965625" y="200.814281" style="fill: #ffffff; stroke: #595959; stroke-linejoin: miter"/>
     <use xlink:href="#mfa9566449e" x="46.965625" y="191.959281" style="fill: #ffffff; stroke: #595959; stroke-linejoin: miter"/>
     <use xlink:href="#mfa9566449e" x="46.965625" y="183.104281" style="fill: #ffffff; stroke: #595959; stroke-linejoin: miter"/>
     <use xlink:href="#mfa9566449e" x="58.970431" y="174.249281" style="fill: #ffffff; stroke: #595959; stroke-linejoin: miter"/>
     <use xlink:href="#mfa9566449e" x="102.186312" y="165.394281" style="fill: #ffffff; stroke: #595959; stroke-linejoin: miter"/>
     <use xlink:href="#mfa9566449e" x="136.231325" y="156.539281" style="fill: #ffffff; stroke: #595959; stroke-linejoin: miter"/>
     <use xlink:href="#mfa9566449e" x="197.504398" y="147.684281" style="fill: #ffffff; stroke: #595959; stroke-linejoin: miter"/>
     <use xlink:href="#mfa9566449e" x="266.099379" y="138.829281" style="fill: #ffffff; stroke: #595959; stroke-linejoin: miter"/>
     <use xlink:href="#mfa9566449e" x="332.630757" y="129.974281" style="fill: #ffffff; stroke: #595959; stroke-linejoin: miter"/>
    </g>
   </g>
   <g id="line2d_47">
    <path d="M 46.965625 209.669281 
L 46.965625 173.864281 
L 48.643677 173.094281 
L 50.260878 172.709281 
L 54.137584 172.324281 
L 56.73637 171.939281 
L 59.422892 171.169281 
L 60.054534 170.784281 
L 63.78989 170.399281 
L 64.827395 170.014281 
L 67.631118 169.629281 
L 68.879953 169.244281 
L 69.249224 168.859281 
L 72.246173 168.474281 
L 72.653704 168.089281 
L 84.577527 167.704281 
L 86.861218 167.319281 
L 87.051482 166.934281 
L 87.628385 166.549281 
L 95.700122 165.009281 
L 107.993241 164.239281 
L 108.205739 163.854281 
L 108.661471 163.469281 
L 111.02739 163.084281 
L 112.333924 162.699281 
L 115.248748 162.314281 
L 116.852957 161.929281 
L 117.222853 161.544281 
L 121.738867 161.159281 
L 122.164453 160.774281 
L 122.859642 160.389281 
L 123.653741 159.619281 
L 125.725298 159.234281 
L 130.113664 158.849281 
L 132.447549 158.464281 
L 132.850301 158.079281 
L 135.562736 157.694281 
L 136.544403 157.309281 
L 140.272575 156.924281 
L 140.496038 156.154281 
L 142.501587 155.769281 
L 145.531283 155.384281 
L 151.267524 154.229281 
L 151.857525 153.844281 
L 152.954869 153.459281 
L 154.54813 153.074281 
L 154.875365 152.689281 
L 161.97282 152.304281 
L 165.955099 151.919281 
L 166.996204 151.534281 
L 170.001131 151.149281 
L 172.048387 150.764281 
L 172.981702 150.379281 
L 181.949997 149.994281 
L 183.183699 149.609281 
L 183.441897 149.224281 
L 190.194982 148.839281 
L 193.727532 148.454281 
L 194.786557 148.069281 
L 200.096174 147.684281 
L 210.071875 147.299281 
L 235.598759 146.529281 
L 235.711593 146.144281 
L 241.204943 145.374281 
L 242.49026 144.989281 
L 252.465526 144.604281 
L 276.965186 144.219281 
L 279.482212 143.834281 
L 283.175264 143.449281 
L 283.212927 143.064281 
L 284.508514 142.679281 
L 294.812545 142.294281 
L 298.317025 141.909281 
L 307.655041 141.524281 
L 312.36032 141.139281 
L 314.053689 140.754281 
L 316.559799 140.369281 
L 325.809206 139.984281 
L 328.571417 139.599281 
L 328.571417 139.599281 
" clip-path="url(#pb176581b7c)" style="fill: none; stroke-dasharray: 1.4,2.31; stroke-dashoffset: 0; stroke: #000000; stroke-width: 1.4"/>
    <defs>
     <path id="mac34ab6585" d="M 0 -2.25 
L -2.25 2.25 
L 2.25 2.25 
z
" style="stroke: #000000; stroke-linejoin: miter"/>
    </defs>
    <g clip-path="url(#pb176581b7c)">
     <use xlink:href="#mac34ab6585" x="46.965625" y="209.669281" style="fill: #ffffff; stroke: #000000; stroke-linejoin: miter"/>
     <use xlink:href="#mac34ab6585" x="46.965625" y="201.969281" style="fill: #ffffff; stroke: #000000; stroke-linejoin: miter"/>
     <use xlink:href="#mac34ab6585" x="46.965625" y="194.269281" style="fill: #ffffff; stroke: #000000; stroke-linejoin: miter"/>
     <use xlink:href="#mac34ab6585" x="46.965625" y="186.569281" style="fill: #ffffff; stroke: #000000; stroke-linejoin: miter"/>
     <use xlink:href="#mac34ab6585" x="46.965625" y="178.869281" style="fill: #ffffff; stroke: #000000; stroke-linejoin: miter"/>
     <use xlink:href="#mac34ab6585" x="59.422892" y="171.169281" style="fill: #ffffff; stroke: #000000; stroke-linejoin: miter"/>
     <use xlink:href="#mac34ab6585" x="108.661471" y="163.469281" style="fill: #ffffff; stroke: #000000; stroke-linejoin: miter"/>
     <use xlink:href="#mac34ab6585" x="142.501587" y="155.769281" style="fill: #ffffff; stroke: #000000; stroke-linejoin: miter"/>
     <use xlink:href="#mac34ab6585" x="194.786557" y="148.069281" style="fill: #ffffff; stroke: #000000; stroke-linejoin: miter"/>
     <use xlink:href="#mac34ab6585" x="316.559799" y="140.369281" style="fill: #ffffff; stroke: #000000; stroke-linejoin: miter"/>
    </g>
   </g>
   <g id="line2d_48">
    <path d="M 46.965625 209.669281 
L 46.969235 173.479281 
L 49.367689 173.094281 
L 49.706136 172.709281 
L 56.455633 171.939281 
L 57.953181 171.554281 
L 58.508095 171.169281 
L 59.317364 170.784281 
L 63.533557 170.399281 
L 64.56489 170.014281 
L 66.900387 169.629281 
L 68.437732 169.244281 
L 68.683997 168.859281 
L 71.694884 168.474281 
L 71.721884 168.089281 
L 72.448357 167.704281 
L 85.168313 167.319281 
L 86.499884 166.934281 
L 86.577424 166.549281 
L 87.639171 166.164281 
L 89.540201 165.779281 
L 93.569697 165.394281 
L 93.682135 165.009281 
L 95.673218 164.624281 
L 107.650126 163.854281 
L 107.948482 163.469281 
L 109.699242 163.084281 
L 117.463817 161.929281 
L 118.226522 161.159281 
L 121.494313 160.774281 
L 123.596648 159.619281 
L 124.064316 159.234281 
L 125.412619 158.849281 
L 131.058894 158.464281 
L 138.009486 157.309281 
L 138.689477 156.924281 
L 138.94644 156.539281 
L 140.005355 156.154281 
L 145.632945 155.769281 
L 146.668403 155.384281 
L 152.162258 154.229281 
L 152.429149 153.844281 
L 156.967785 153.074281 
L 162.418626 152.689281 
L 165.840478 152.304281 
L 166.530018 151.534281 
L 169.51492 151.149281 
L 173.606937 150.764281 
L 182.505274 150.379281 
L 183.097166 149.994281 
L 185.139053 149.609281 
L 191.390627 149.224281 
L 194.518691 148.839281 
L 195.355432 148.454281 
L 199.446197 148.069281 
L 210.040063 147.684281 
L 226.946187 147.299281 
L 236.136316 146.914281 
L 236.474334 146.529281 
L 242.499982 145.374281 
L 253.0681 144.989281 
L 277.566859 144.604281 
L 281.708994 144.219281 
L 283.406552 143.834281 
L 283.560585 143.449281 
L 285.490958 143.064281 
L 297.190468 142.679281 
L 300.280125 142.294281 
L 309.10174 141.909281 
L 312.703593 141.524281 
L 314.41473 141.139281 
L 317.554433 140.754281 
L 325.689536 140.369281 
L 328.765809 139.984281 
L 328.765809 139.984281 
" clip-path="url(#pb176581b7c)" style="fill: none; stroke-dasharray: 8.96,2.24,1.4,2.24; stroke-dashoffset: 0; stroke: #808080; stroke-width: 1.4"/>
    <defs>
     <path id="mc1f428eaf1" d="M -0 3.181981 
L 3.181981 0 
L 0 -3.181981 
L -3.181981 -0 
z
" style="stroke: #808080; stroke-linejoin: miter"/>
    </defs>
    <g clip-path="url(#pb176581b7c)">
     <use xlink:href="#mc1f428eaf1" x="46.965625" y="209.669281" style="fill: #ffffff; stroke: #808080; stroke-linejoin: miter"/>
     <use xlink:href="#mc1f428eaf1" x="46.965625" y="201.969281" style="fill: #ffffff; stroke: #808080; stroke-linejoin: miter"/>
     <use xlink:href="#mc1f428eaf1" x="46.965625" y="194.269281" style="fill: #ffffff; stroke: #808080; stroke-linejoin: miter"/>
     <use xlink:href="#mc1f428eaf1" x="46.965625" y="186.569281" style="fill: #ffffff; stroke: #808080; stroke-linejoin: miter"/>
     <use xlink:href="#mc1f428eaf1" x="46.965625" y="178.869281" style="fill: #ffffff; stroke: #808080; stroke-linejoin: miter"/>
     <use xlink:href="#mc1f428eaf1" x="58.508095" y="171.169281" style="fill: #ffffff; stroke: #808080; stroke-linejoin: miter"/>
     <use xlink:href="#mc1f428eaf1" x="107.948482" y="163.469281" style="fill: #ffffff; stroke: #808080; stroke-linejoin: miter"/>
     <use xlink:href="#mc1f428eaf1" x="145.632945" y="155.769281" style="fill: #ffffff; stroke: #808080; stroke-linejoin: miter"/>
     <use xlink:href="#mc1f428eaf1" x="199.446197" y="148.069281" style="fill: #ffffff; stroke: #808080; stroke-linejoin: miter"/>
     <use xlink:href="#mc1f428eaf1" x="325.689536" y="140.369281" style="fill: #ffffff; stroke: #808080; stroke-linejoin: miter"/>
    </g>
   </g>
   <g id="line2d_49">
    <path d="M 46.965625 209.669281 
L 46.965625 173.864281 
L 47.388381 173.479281 
L 49.393146 173.094281 
L 50.078516 172.709281 
L 56.229977 171.939281 
L 58.080952 171.554281 
L 58.330132 171.169281 
L 59.247324 170.784281 
L 63.317867 170.399281 
L 64.101172 170.014281 
L 65.371139 169.629281 
L 68.475515 169.244281 
L 68.737173 168.859281 
L 71.183907 168.474281 
L 72.442144 168.089281 
L 85.388737 167.704281 
L 86.498279 167.319281 
L 86.533839 166.934281 
L 87.183608 166.549281 
L 89.191785 166.164281 
L 93.272632 165.779281 
L 93.916973 165.394281 
L 95.549462 165.009281 
L 95.729254 164.624281 
L 107.471654 163.854281 
L 107.799891 163.469281 
L 110.134094 163.084281 
L 110.811038 162.699281 
L 114.010202 161.929281 
L 117.297524 161.544281 
L 117.746159 161.159281 
L 121.610154 160.774281 
L 122.588539 160.004281 
L 123.449955 159.619281 
L 124.939998 159.234281 
L 125.597638 158.849281 
L 130.790932 158.464281 
L 133.580328 158.079281 
L 138.720504 156.924281 
L 138.954634 156.539281 
L 139.969004 156.154281 
L 144.749083 155.769281 
L 148.557741 154.999281 
L 151.210334 154.614281 
L 151.643338 154.229281 
L 153.538146 153.459281 
L 155.594426 153.074281 
L 161.408798 152.689281 
L 165.248478 152.304281 
L 166.109185 151.919281 
L 166.464365 151.534281 
L 172.413495 150.764281 
L 182.867373 150.379281 
L 183.245139 149.994281 
L 185.159369 149.609281 
L 190.601272 149.224281 
L 194.099351 148.839281 
L 194.672812 148.454281 
L 199.46051 148.069281 
L 210.290524 147.684281 
L 225.554965 147.299281 
L 235.018223 146.914281 
L 237.619828 146.144281 
L 240.667661 145.759281 
L 242.025749 145.374281 
L 252.085459 144.989281 
L 276.795381 144.604281 
L 280.383024 144.219281 
L 282.593723 143.834281 
L 282.63768 143.449281 
L 284.034673 143.064281 
L 296.278939 142.679281 
L 299.353239 142.294281 
L 308.446428 141.909281 
L 311.632166 141.524281 
L 313.37899 141.139281 
L 316.157678 140.754281 
L 323.829308 140.369281 
L 326.861316 139.984281 
L 326.861316 139.984281 
" clip-path="url(#pb176581b7c)" style="fill: none; stroke: #595959; stroke-width: 1.4; stroke-linecap: square"/>
    <defs>
     <path id="mcbfa4b9463" d="M -0 2.25 
L 2.25 -2.25 
L -2.25 -2.25 
z
" style="stroke: #595959; stroke-linejoin: miter"/>
    </defs>
    <g clip-path="url(#pb176581b7c)">
     <use xlink:href="#mcbfa4b9463" x="46.965625" y="209.669281" style="fill: #ffffff; stroke: #595959; stroke-linejoin: miter"/>
     <use xlink:href="#mcbfa4b9463" x="46.965625" y="201.969281" style="fill: #ffffff; stroke: #595959; stroke-linejoin: miter"/>
     <use xlink:href="#mcbfa4b9463" x="46.965625" y="194.269281" style="fill: #ffffff; stroke: #595959; stroke-linejoin: miter"/>
     <use xlink:href="#mcbfa4b9463" x="46.965625" y="186.569281" style="fill: #ffffff; stroke: #595959; stroke-linejoin: miter"/>
     <use xlink:href="#mcbfa4b9463" x="46.965625" y="178.869281" style="fill: #ffffff; stroke: #595959; stroke-linejoin: miter"/>
     <use xlink:href="#mcbfa4b9463" x="58.330132" y="171.169281" style="fill: #ffffff; stroke: #595959; stroke-linejoin: miter"/>
     <use xlink:href="#mcbfa4b9463" x="107.799891" y="163.469281" style="fill: #ffffff; stroke: #595959; stroke-linejoin: miter"/>
     <use xlink:href="#mcbfa4b9463" x="144.749083" y="155.769281" style="fill: #ffffff; stroke: #595959; stroke-linejoin: miter"/>
     <use xlink:href="#mcbfa4b9463" x="199.46051" y="148.069281" style="fill: #ffffff; stroke: #595959; stroke-linejoin: miter"/>
     <use xlink:href="#mcbfa4b9463" x="323.829308" y="140.369281" style="fill: #ffffff; stroke: #595959; stroke-linejoin: miter"/>
    </g>
   </g>
   <g id="line2d_50">
    <path d="M 46.965625 209.669281 
L 46.967291 181.949281 
L 48.4406 181.564281 
L 48.499525 181.179281 
L 48.896876 180.409281 
L 49.03744 179.639281 
L 49.090739 179.254281 
L 51.382749 178.484281 
L 51.97865 178.099281 
L 52.028218 177.714281 
L 52.334542 177.329281 
L 53.867516 176.944281 
L 53.944731 176.559281 
L 55.186965 175.789281 
L 55.973978 175.404281 
L 56.05537 175.019281 
L 58.557896 174.634281 
L 60.141583 174.249281 
L 61.846785 173.094281 
L 62.6146 172.709281 
L 69.206247 171.554281 
L 69.582673 171.169281 
L 71.865445 170.784281 
L 72.968814 170.399281 
L 76.272415 170.014281 
L 76.340669 169.629281 
L 80.569595 169.244281 
L 81.657072 168.859281 
L 81.755788 168.474281 
L 83.035124 168.089281 
L 87.3617 167.704281 
L 98.849777 167.319281 
L 100.7955 166.934281 
L 102.158013 166.164281 
L 106.463654 165.779281 
L 108.26081 165.394281 
L 112.229261 165.009281 
L 112.332869 164.624281 
L 113.920403 164.239281 
L 127.400368 163.084281 
L 127.852696 162.699281 
L 128.864282 162.314281 
L 132.891603 161.929281 
L 132.980672 161.159281 
L 134.899199 160.004281 
L 136.954613 159.619281 
L 136.978191 159.234281 
L 137.413114 158.849281 
L 138.179439 158.464281 
L 144.94094 158.079281 
L 151.32071 156.924281 
L 151.665042 156.539281 
L 152.171372 156.154281 
L 153.232377 155.769281 
L 156.895464 155.384281 
L 156.967732 154.999281 
L 164.552433 153.844281 
L 167.419005 153.459281 
L 167.866052 153.074281 
L 169.129318 152.689281 
L 172.744521 152.304281 
L 174.053166 151.919281 
L 174.825453 151.534281 
L 187.361435 151.149281 
L 191.508246 150.764281 
L 193.590412 149.994281 
L 197.276357 149.609281 
L 199.723805 149.224281 
L 200.62962 148.839281 
L 206.425319 148.454281 
L 209.844403 148.069281 
L 216.334377 147.684281 
L 235.553796 147.299281 
L 239.915971 146.914281 
L 245.819824 146.529281 
L 250.590583 145.759281 
L 253.048661 145.374281 
L 261.600487 144.989281 
L 281.955115 144.604281 
L 282.999861 144.219281 
L 289.99019 143.834281 
L 294.830012 143.449281 
L 296.788991 143.064281 
L 297.61302 142.679281 
L 301.968265 142.294281 
L 313.736334 141.909281 
L 319.693951 141.524281 
L 321.547522 141.139281 
L 322.204885 140.754281 
L 328.694911 140.369281 
L 328.694911 140.369281 
" clip-path="url(#pb176581b7c)" style="fill: none; stroke-dasharray: 5.18,2.24; stroke-dashoffset: 0; stroke: #000000; stroke-width: 1.4"/>
    <defs>
     <path id="m48abdf2af0" d="M -2.25 2.25 
L 2.25 -2.25 
M -2.25 -2.25 
L 2.25 2.25 
" style="stroke: #000000"/>
    </defs>
    <g clip-path="url(#pb176581b7c)">
     <use xlink:href="#m48abdf2af0" x="46.965625" y="209.669281" style="fill: #ffffff; stroke: #000000"/>
     <use xlink:href="#m48abdf2af0" x="46.965625" y="201.969281" style="fill: #ffffff; stroke: #000000"/>
     <use xlink:href="#m48abdf2af0" x="46.965625" y="194.269281" style="fill: #ffffff; stroke: #000000"/>
     <use xlink:href="#m48abdf2af0" x="46.965625" y="186.569281" style="fill: #ffffff; stroke: #000000"/>
     <use xlink:href="#m48abdf2af0" x="50.417046" y="178.869281" style="fill: #ffffff; stroke: #000000"/>
     <use xlink:href="#m48abdf2af0" x="69.582673" y="171.169281" style="fill: #ffffff; stroke: #000000"/>
     <use xlink:href="#m48abdf2af0" x="122.93142" y="163.469281" style="fill: #ffffff; stroke: #000000"/>
     <use xlink:href="#m48abdf2af0" x="153.232377" y="155.769281" style="fill: #ffffff; stroke: #000000"/>
     <use xlink:href="#m48abdf2af0" x="209.844403" y="148.069281" style="fill: #ffffff; stroke: #000000"/>
     <use xlink:href="#m48abdf2af0" x="328.694911" y="140.369281" style="fill: #ffffff; stroke: #000000"/>
    </g>
   </g>
   <g id="line2d_51">
    <path d="M 46.965625 209.669281 
L 50.281587 209.284281 
L 50.945152 208.899281 
L 51.490077 207.744281 
L 53.801812 207.359281 
L 55.204928 206.589281 
L 55.666513 205.819281 
L 55.725322 205.434281 
L 56.014904 205.049281 
L 57.29081 204.664281 
L 57.800768 204.279281 
L 57.921942 203.894281 
L 58.684013 203.124281 
L 59.143454 201.969281 
L 59.877694 201.584281 
L 60.610354 200.814281 
L 60.844164 200.429281 
L 61.210356 200.044281 
L 61.407014 199.659281 
L 61.457651 198.504281 
L 61.467372 198.119281 
L 61.920137 197.349281 
L 62.468955 196.964281 
L 62.513094 196.579281 
L 63.837274 194.654281 
L 64.087984 193.884281 
L 65.57009 193.114281 
L 65.650691 192.729281 
L 67.143824 191.959281 
L 67.599566 190.804281 
L 67.604057 190.419281 
L 67.74081 190.034281 
L 68.511074 189.649281 
L 68.600028 189.264281 
L 69.705391 188.879281 
L 69.741611 188.494281 
L 70.773973 187.339281 
L 70.866781 186.954281 
L 72.262148 186.184281 
L 72.661631 185.414281 
L 73.283296 185.029281 
L 73.974421 183.874281 
L 74.137946 183.104281 
L 75.25262 182.719281 
L 75.656683 182.334281 
L 77.037754 181.949281 
L 77.253564 180.794281 
L 77.773776 180.409281 
L 77.779819 180.024281 
L 77.937482 179.639281 
L 78.441579 179.254281 
L 78.893712 177.714281 
L 79.093611 176.944281 
L 80.603192 176.559281 
L 83.085389 176.174281 
L 83.740427 175.789281 
L 84.874314 174.634281 
L 85.672477 174.249281 
L 88.200781 173.479281 
L 88.408601 173.094281 
L 88.818523 172.709281 
L 88.925735 172.324281 
L 90.180171 171.939281 
L 92.941453 171.554281 
L 93.091136 171.169281 
L 93.095303 170.784281 
L 97.094211 170.399281 
L 97.790434 170.014281 
L 101.813266 169.629281 
L 104.656796 169.244281 
L 105.93832 168.859281 
L 109.545697 168.474281 
L 109.611361 168.089281 
L 115.103962 167.319281 
L 123.07442 166.934281 
L 123.383583 166.549281 
L 125.651908 165.779281 
L 129.174997 165.394281 
L 129.937886 165.009281 
L 140.324614 163.854281 
L 144.819271 163.469281 
L 145.581284 163.084281 
L 145.834292 162.699281 
L 148.510102 162.314281 
L 151.641544 160.774281 
L 151.786822 160.389281 
L 153.618792 160.004281 
L 153.785139 159.619281 
L 156.55785 158.849281 
L 156.747056 158.464281 
L 157.225722 158.079281 
L 163.20029 157.694281 
L 164.375873 157.309281 
L 164.673445 156.924281 
L 165.963973 156.539281 
L 167.787733 156.154281 
L 168.534673 155.769281 
L 170.600277 155.384281 
L 173.354081 154.999281 
L 180.025682 154.614281 
L 180.25956 154.229281 
L 181.629224 153.844281 
L 185.990913 153.459281 
L 186.006899 153.074281 
L 188.299675 152.689281 
L 188.606297 152.304281 
L 190.488912 151.919281 
L 198.223736 151.149281 
L 208.797399 150.764281 
L 213.471436 149.609281 
L 219.844934 149.224281 
L 220.973667 148.454281 
L 228.661809 148.069281 
L 229.426207 147.684281 
L 252.665425 147.299281 
L 260.812159 146.529281 
L 260.878558 146.144281 
L 275.312241 145.374281 
L 280.061055 144.989281 
L 289.796555 144.604281 
L 294.015171 144.219281 
L 300.963914 143.834281 
L 304.650995 143.449281 
L 311.650504 143.064281 
L 328.876096 141.524281 
L 331.972885 141.139281 
L 331.972885 141.139281 
" clip-path="url(#pb176581b7c)" style="fill: none; stroke-dasharray: 1.4,2.31; stroke-dashoffset: 0; stroke: #808080; stroke-width: 1.4"/>
    <defs>
     <path id="mc145cea7a7" d="M -0.75 2.25 
L 0.75 2.25 
L 0.75 0.75 
L 2.25 0.75 
L 2.25 -0.75 
L 0.75 -0.75 
L 0.75 -2.25 
L -0.75 -2.25 
L -0.75 -0.75 
L -2.25 -0.75 
L -2.25 0.75 
L -0.75 0.75 
z
" style="stroke: #808080; stroke-linejoin: miter"/>
    </defs>
    <g clip-path="url(#pb176581b7c)">
     <use xlink:href="#mc145cea7a7" x="46.965625" y="209.669281" style="fill: #ffffff; stroke: #808080; stroke-linejoin: miter"/>
     <use xlink:href="#mc145cea7a7" x="59.072794" y="202.354281" style="fill: #ffffff; stroke: #808080; stroke-linejoin: miter"/>
     <use xlink:href="#mc145cea7a7" x="63.716459" y="195.039281" style="fill: #ffffff; stroke: #808080; stroke-linejoin: miter"/>
     <use xlink:href="#mc145cea7a7" x="70.636841" y="187.724281" style="fill: #ffffff; stroke: #808080; stroke-linejoin: miter"/>
     <use xlink:href="#mc145cea7a7" x="77.773776" y="180.409281" style="fill: #ffffff; stroke: #808080; stroke-linejoin: miter"/>
     <use xlink:href="#mc145cea7a7" x="88.408601" y="173.094281" style="fill: #ffffff; stroke: #808080; stroke-linejoin: miter"/>
     <use xlink:href="#mc145cea7a7" x="125.651908" y="165.779281" style="fill: #ffffff; stroke: #808080; stroke-linejoin: miter"/>
     <use xlink:href="#mc145cea7a7" x="156.747056" y="158.464281" style="fill: #ffffff; stroke: #808080; stroke-linejoin: miter"/>
     <use xlink:href="#mc145cea7a7" x="198.223736" y="151.149281" style="fill: #ffffff; stroke: #808080; stroke-linejoin: miter"/>
     <use xlink:href="#mc145cea7a7" x="300.963914" y="143.834281" style="fill: #ffffff; stroke: #808080; stroke-linejoin: miter"/>
    </g>
   </g>
   <g id="line2d_52">
    <path d="M 333.244447 210.054281 
L 333.244447 21.558281 
" clip-path="url(#pb176581b7c)" style="fill: none; stroke-dasharray: 0.8,1.6; stroke-dashoffset: 0; stroke: #999999; stroke-width: 0.8"/>
   </g>
   <g id="patch_3">
    <path d="M 46.965625 210.054281 
L 46.965625 21.558281 
" style="fill: none; stroke: #000000; stroke-width: 0.8; stroke-linejoin: miter; stroke-linecap: square"/>
   </g>
   <g id="patch_4">
    <path d="M 46.965625 210.054281 
L 337.125625 210.054281 
" style="fill: none; stroke: #000000; stroke-width: 0.8; stroke-linejoin: miter; stroke-linecap: square"/>
   </g>
   <g id="text_13">
    <!--  300 s -->
    <g style="fill: #666666" transform="translate(333.244447 204.620611) scale(0.08 -0.08)">
     <use xlink:href="#DejaVuSerif-20"/>
     <use xlink:href="#DejaVuSerif-33" x="31.787109"/>
     <use xlink:href="#DejaVuSerif-30" x="95.410156"/>
     <use xlink:href="#DejaVuSerif-30" x="159.033203"/>
     <use xlink:href="#DejaVuSerif-20" x="222.65625"/>
     <use xlink:href="#DejaVuSerif-73" x="254.443359"/>
    </g>
   </g>
   <g id="text_14">
    <!-- J90: instances solved within time budget -->
    <g transform="translate(78.627891 15.558281) scale(0.11 -0.11)">
     <defs>
      <path id="DejaVuSerif-4a" d="M -538 -1119 
L -538 -384 
L -181 -384 
Q -172 -694 -34 -845 
Q 103 -997 378 -997 
Q 750 -997 897 -762 
Q 1044 -528 1044 153 
L 1044 4331 
L 319 4331 
L 319 4666 
L 2272 4666 
L 2272 4331 
L 1678 4331 
L 1678 128 
Q 1678 -644 1368 -987 
Q 1059 -1331 372 -1331 
Q 150 -1331 -79 -1278 
Q -309 -1225 -538 -1119 
z
" transform="scale(0.015625)"/>
      <path id="DejaVuSerif-39" d="M 2994 2091 
Q 2784 1856 2512 1740 
Q 2241 1625 1900 1625 
Q 1206 1625 804 2044 
Q 403 2463 403 3188 
Q 403 3897 839 4323 
Q 1275 4750 2003 4750 
Q 2794 4750 3217 4161 
Q 3641 3572 3641 2478 
Q 3641 1253 3137 581 
Q 2634 -91 1722 -91 
Q 1475 -91 1203 -44 
Q 931 3 647 97 
L 647 872 
L 997 872 
Q 1038 556 1241 387 
Q 1444 219 1784 219 
Q 2391 219 2687 676 
Q 2984 1134 2994 2091 
z
M 1978 4441 
Q 1534 4441 1298 4117 
Q 1063 3794 1063 3188 
Q 1063 2581 1298 2256 
Q 1534 1931 1978 1931 
Q 2422 1931 2658 2245 
Q 2894 2559 2894 3150 
Q 2894 3772 2656 4106 
Q 2419 4441 1978 4441 
z
" transform="scale(0.015625)"/>
      <path id="DejaVuSerif-3a" d="M 666 325 
Q 666 500 786 622 
Q 906 744 1081 744 
Q 1256 744 1376 622 
Q 1497 500 1497 325 
Q 1497 150 1378 29 
Q 1259 -91 1081 -91 
Q 903 -91 784 29 
Q 666 150 666 325 
z
M 666 2363 
Q 666 2538 786 2658 
Q 906 2778 1081 2778 
Q 1259 2778 1378 2659 
Q 1497 2541 1497 2363 
Q 1497 2184 1378 2065 
Q 1259 1947 1081 1947 
Q 906 1947 786 2067 
Q 666 2188 666 2363 
z
" transform="scale(0.015625)"/>
      <path id="DejaVuSerif-77" d="M 3072 3322 
L 3922 728 
L 4672 2988 
L 4191 2988 
L 4191 3322 
L 5394 3322 
L 5394 2988 
L 5025 2988 
L 4038 0 
L 3559 0 
L 2741 2484 
L 1919 0 
L 1459 0 
L 475 2988 
L 103 2988 
L 103 3322 
L 1606 3322 
L 1606 2988 
L 1069 2988 
L 1813 728 
L 2669 3322 
L 3072 3322 
z
" transform="scale(0.015625)"/>
      <path id="DejaVuSerif-68" d="M 263 0 
L 263 331 
L 781 331 
L 781 4531 
L 231 4531 
L 231 4863 
L 1356 4863 
L 1356 2731 
Q 1516 3069 1770 3241 
Q 2025 3413 2363 3413 
Q 2913 3413 3172 3097 
Q 3431 2781 3431 2113 
L 3431 331 
L 3944 331 
L 3944 0 
L 2356 0 
L 2356 331 
L 2853 331 
L 2853 1931 
Q 2853 2541 2704 2764 
Q 2556 2988 2175 2988 
Q 1775 2988 1565 2697 
Q 1356 2406 1356 1850 
L 1356 331 
L 1856 331 
L 1856 0 
L 263 0 
z
" transform="scale(0.015625)"/>
     </defs>
     <use xlink:href="#DejaVuSerif-4a"/>
     <use xlink:href="#DejaVuSerif-39" x="40.087891"/>
     <use xlink:href="#DejaVuSerif-30" x="103.710938"/>
     <use xlink:href="#DejaVuSerif-3a" x="167.333984"/>
     <use xlink:href="#DejaVuSerif-20" x="201.025391"/>
     <use xlink:href="#DejaVuSerif-69" x="232.8125"/>
     <use xlink:href="#DejaVuSerif-6e" x="264.794922"/>
     <use xlink:href="#DejaVuSerif-73" x="329.199219"/>
     <use xlink:href="#DejaVuSerif-74" x="380.517578"/>
     <use xlink:href="#DejaVuSerif-61" x="420.703125"/>
     <use xlink:href="#DejaVuSerif-6e" x="480.322266"/>
     <use xlink:href="#DejaVuSerif-63" x="544.726562"/>
     <use xlink:href="#DejaVuSerif-65" x="600.732422"/>
     <use xlink:href="#DejaVuSerif-73" x="659.912109"/>
     <use xlink:href="#DejaVuSerif-20" x="711.230469"/>
     <use xlink:href="#DejaVuSerif-73" x="743.017578"/>
     <use xlink:href="#DejaVuSerif-6f" x="794.335938"/>
     <use xlink:href="#DejaVuSerif-6c" x="854.541016"/>
     <use xlink:href="#DejaVuSerif-76" x="886.523438"/>
     <use xlink:href="#DejaVuSerif-65" x="943.017578"/>
     <use xlink:href="#DejaVuSerif-64" x="1002.197266"/>
     <use xlink:href="#DejaVuSerif-20" x="1066.210938"/>
     <use xlink:href="#DejaVuSerif-77" x="1097.998047"/>
     <use xlink:href="#DejaVuSerif-69" x="1183.59375"/>
     <use xlink:href="#DejaVuSerif-74" x="1215.576172"/>
     <use xlink:href="#DejaVuSerif-68" x="1255.761719"/>
     <use xlink:href="#DejaVuSerif-69" x="1320.166016"/>
     <use xlink:href="#DejaVuSerif-6e" x="1352.148438"/>
     <use xlink:href="#DejaVuSerif-20" x="1416.552734"/>
     <use xlink:href="#DejaVuSerif-74" x="1448.339844"/>
     <use xlink:href="#DejaVuSerif-69" x="1488.525391"/>
     <use xlink:href="#DejaVuSerif-6d" x="1520.507812"/>
     <use xlink:href="#DejaVuSerif-65" x="1615.332031"/>
     <use xlink:href="#DejaVuSerif-20" x="1674.511719"/>
     <use xlink:href="#DejaVuSerif-62" x="1706.298828"/>
     <use xlink:href="#DejaVuSerif-75" x="1770.3125"/>
     <use xlink:href="#DejaVuSerif-64" x="1834.716797"/>
     <use xlink:href="#DejaVuSerif-67" x="1898.730469"/>
     <use xlink:href="#DejaVuSerif-65" x="1962.744141"/>
     <use xlink:href="#DejaVuSerif-74" x="2021.923828"/>
    </g>
   </g>
   <g id="legend_1">
    <g id="line2d_53">
     <path d="M 54.615625 32.691953 
L 65.665625 32.691953 
L 76.715625 32.691953 
" style="fill: none; stroke: #000000; stroke-width: 1.4; stroke-linecap: square"/>
     <g>
      <use xlink:href="#m4be6cdd5bb" x="65.665625" y="32.691953" style="fill: #ffffff; stroke: #000000"/>
     </g>
    </g>
    <g id="text_15">
     <!-- TT2 LBMAX +dom (209) -->
     <g transform="translate(83.515625 35.666953) scale(0.085 -0.085)">
      <defs>
       <path id="DejaVuSerif-54" d="M 1222 0 
L 1222 331 
L 1819 331 
L 1819 4294 
L 447 4294 
L 447 3566 
L 63 3566 
L 63 4666 
L 4206 4666 
L 4206 3566 
L 3822 3566 
L 3822 4294 
L 2450 4294 
L 2450 331 
L 3047 331 
L 3047 0 
L 1222 0 
z
" transform="scale(0.015625)"/>
       <path id="DejaVuSerif-4c" d="M 353 0 
L 353 331 
L 947 331 
L 947 4331 
L 353 4331 
L 353 4666 
L 2175 4666 
L 2175 4331 
L 1581 4331 
L 1581 384 
L 3713 384 
L 3713 1166 
L 4097 1166 
L 4097 0 
L 353 0 
z
" transform="scale(0.015625)"/>
       <path id="DejaVuSerif-42" d="M 1581 331 
L 2516 331 
Q 3078 331 3337 575 
Q 3597 819 3597 1350 
Q 3597 1878 3339 2120 
Q 3081 2363 2516 2363 
L 1581 2363 
L 1581 331 
z
M 1581 2694 
L 2375 2694 
Q 2888 2694 3123 2891 
Q 3359 3088 3359 3513 
Q 3359 3941 3123 4136 
Q 2888 4331 2375 4331 
L 1581 4331 
L 1581 2694 
z
M 353 0 
L 353 331 
L 947 331 
L 947 4331 
L 353 4331 
L 353 4666 
L 2656 4666 
Q 3363 4666 3720 4377 
Q 4078 4088 4078 3513 
Q 4078 3097 3829 2850 
Q 3581 2603 3103 2547 
Q 3697 2472 4005 2167 
Q 4313 1863 4313 1350 
Q 4313 656 3875 328 
Q 3438 0 2509 0 
L 353 0 
z
" transform="scale(0.015625)"/>
       <path id="DejaVuSerif-4d" d="M 353 0 
L 353 331 
L 947 331 
L 947 4331 
L 319 4331 
L 319 4666 
L 1678 4666 
L 3316 1344 
L 4953 4666 
L 6228 4666 
L 6228 4331 
L 5606 4331 
L 5606 331 
L 6203 331 
L 6203 0 
L 4378 0 
L 4378 331 
L 4972 331 
L 4972 3938 
L 3372 684 
L 2931 684 
L 1331 3938 
L 1331 331 
L 1925 331 
L 1925 0 
L 353 0 
z
" transform="scale(0.015625)"/>
       <path id="DejaVuSerif-41" d="M 1281 1691 
L 2994 1691 
L 2138 3909 
L 1281 1691 
z
M -38 0 
L -38 331 
L 372 331 
L 2034 4666 
L 2559 4666 
L 4225 331 
L 4684 331 
L 4684 0 
L 2988 0 
L 2988 331 
L 3506 331 
L 3116 1356 
L 1153 1356 
L 763 331 
L 1275 331 
L 1275 0 
L -38 0 
z
" transform="scale(0.015625)"/>
       <path id="DejaVuSerif-58" d="M 2119 1997 
L 978 331 
L 1581 331 
L 1581 0 
L 38 0 
L 38 331 
L 575 331 
L 1919 2291 
L 556 4331 
L 56 4331 
L 56 4666 
L 1906 4666 
L 1906 4331 
L 1356 4331 
L 2356 2828 
L 3384 4331 
L 2784 4331 
L 2784 4666 
L 4313 4666 
L 4313 4331 
L 3788 4331 
L 2553 2534 
L 4025 331 
L 4525 331 
L 4525 0 
L 2675 0 
L 2675 331 
L 3231 331 
L 2119 1997 
z
" transform="scale(0.015625)"/>
       <path id="DejaVuSerif-2b" d="M 2931 4013 
L 2931 2259 
L 4684 2259 
L 4684 1753 
L 2931 1753 
L 2931 0 
L 2431 0 
L 2431 1753 
L 678 1753 
L 678 2259 
L 2431 2259 
L 2431 4013 
L 2931 4013 
z
" transform="scale(0.015625)"/>
      </defs>
      <use xlink:href="#DejaVuSerif-54"/>
      <use xlink:href="#DejaVuSerif-54" x="68.574219"/>
      <use xlink:href="#DejaVuSerif-32" x="135.273438"/>
      <use xlink:href="#DejaVuSerif-20" x="198.896484"/>
      <use xlink:href="#DejaVuSerif-4c" x="230.683594"/>
      <use xlink:href="#DejaVuSerif-42" x="297.089844"/>
      <use xlink:href="#DejaVuSerif-4d" x="370.576172"/>
      <use xlink:href="#DejaVuSerif-41" x="472.96875"/>
      <use xlink:href="#DejaVuSerif-58" x="545.185547"/>
      <use xlink:href="#DejaVuSerif-20" x="616.376953"/>
      <use xlink:href="#DejaVuSerif-2b" x="648.164062"/>
      <use xlink:href="#DejaVuSerif-64" x="731.953125"/>
      <use xlink:href="#DejaVuSerif-6f" x="795.966797"/>
      <use xlink:href="#DejaVuSerif-6d" x="856.171875"/>
      <use xlink:href="#DejaVuSerif-20" x="950.996094"/>
      <use xlink:href="#DejaVuSerif-28" x="982.783203"/>
      <use xlink:href="#DejaVuSerif-32" x="1021.796875"/>
      <use xlink:href="#DejaVuSerif-30" x="1085.419922"/>
      <use xlink:href="#DejaVuSerif-39" x="1149.042969"/>
      <use xlink:href="#DejaVuSerif-29" x="1212.666016"/>
     </g>
    </g>
    <g id="line2d_54">
     <path d="M 54.615625 45.168359 
L 65.665625 45.168359 
L 76.715625 45.168359 
" style="fill: none; stroke-dasharray: 5.18,2.24; stroke-dashoffset: 0; stroke: #595959; stroke-width: 1.4"/>
     <g>
      <use xlink:href="#mfa9566449e" x="65.665625" y="45.168359" style="fill: #ffffff; stroke: #595959; stroke-linejoin: miter"/>
     </g>
    </g>
    <g id="text_16">
     <!-- TT2 LBCS +dom (208) -->
     <g transform="translate(83.515625 48.143359) scale(0.085 -0.085)">
      <defs>
       <path id="DejaVuSerif-43" d="M 4513 1234 
Q 4306 581 3820 245 
Q 3334 -91 2591 -91 
Q 2134 -91 1743 65 
Q 1353 222 1050 525 
Q 700 875 529 1320 
Q 359 1766 359 2328 
Q 359 3416 987 4083 
Q 1616 4750 2644 4750 
Q 3025 4750 3456 4650 
Q 3888 4550 4384 4347 
L 4384 3272 
L 4031 3272 
Q 3916 3859 3567 4137 
Q 3219 4416 2591 4416 
Q 1844 4416 1459 3886 
Q 1075 3356 1075 2328 
Q 1075 1303 1459 773 
Q 1844 244 2591 244 
Q 3113 244 3450 492 
Q 3788 741 3938 1234 
L 4513 1234 
z
" transform="scale(0.015625)"/>
       <path id="DejaVuSerif-53" d="M 594 225 
L 594 1288 
L 953 1284 
Q 969 753 1261 498 
Q 1553 244 2150 244 
Q 2706 244 2998 464 
Q 3291 684 3291 1106 
Q 3291 1444 3114 1625 
Q 2938 1806 2369 1978 
L 1753 2163 
Q 1084 2366 811 2669 
Q 538 2972 538 3500 
Q 538 4094 959 4422 
Q 1381 4750 2144 4750 
Q 2469 4750 2856 4679 
Q 3244 4609 3681 4475 
L 3681 3481 
L 3328 3481 
Q 3275 3975 2998 4195 
Q 2722 4416 2156 4416 
Q 1663 4416 1405 4214 
Q 1147 4013 1147 3628 
Q 1147 3294 1340 3103 
Q 1534 2913 2163 2725 
L 2741 2553 
Q 3375 2363 3645 2067 
Q 3916 1772 3916 1275 
Q 3916 597 3481 253 
Q 3047 -91 2188 -91 
Q 1803 -91 1404 -12 
Q 1006 66 594 225 
z
" transform="scale(0.015625)"/>
      </defs>
      <use xlink:href="#DejaVuSerif-54"/>
      <use xlink:href="#DejaVuSerif-54" x="68.574219"/>
      <use xlink:href="#DejaVuSerif-32" x="135.273438"/>
      <use xlink:href="#DejaVuSerif-20" x="198.896484"/>
      <use xlink:href="#DejaVuSerif-4c" x="230.683594"/>
      <use xlink:href="#DejaVuSerif-42" x="297.089844"/>
      <use xlink:href="#DejaVuSerif-43" x="372.451172"/>
      <use xlink:href="#DejaVuSerif-53" x="448.964844"/>
      <use xlink:href="#DejaVuSerif-20" x="517.470703"/>
      <use xlink:href="#DejaVuSerif-2b" x="549.257812"/>
      <use xlink:href="#DejaVuSerif-64" x="633.046875"/>
      <use xlink:href="#DejaVuSerif-6f" x="697.060547"/>
      <use xlink:href="#DejaVuSerif-6d" x="757.265625"/>
      <use xlink:href="#DejaVuSerif-20" x="852.089844"/>
      <use xlink:href="#DejaVuSerif-28" x="883.876953"/>
      <use xlink:href="#DejaVuSerif-32" x="922.890625"/>
      <use xlink:href="#DejaVuSerif-30" x="986.513672"/>
      <use xlink:href="#DejaVuSerif-38" x="1050.136719"/>
      <use xlink:href="#DejaVuSerif-29" x="1113.759766"/>
     </g>
    </g>
    <g id="line2d_55">
     <path d="M 54.615625 57.644766 
L 65.665625 57.644766 
L 76.715625 57.644766 
" style="fill: none; stroke-dasharray: 1.4,2.31; stroke-dashoffset: 0; stroke: #000000; stroke-width: 1.4"/>
     <g>
      <use xlink:href="#mac34ab6585" x="65.665625" y="57.644766" style="fill: #ffffff; stroke: #000000; stroke-linejoin: miter"/>
     </g>
    </g>
    <g id="text_17">
     <!-- TT2 LBIP0 (183) -->
     <g transform="translate(83.515625 60.619766) scale(0.085 -0.085)">
      <defs>
       <path id="DejaVuSerif-49" d="M 1581 331 
L 2175 331 
L 2175 0 
L 353 0 
L 353 331 
L 947 331 
L 947 4331 
L 353 4331 
L 353 4666 
L 2175 4666 
L 2175 4331 
L 1581 4331 
L 1581 331 
z
" transform="scale(0.015625)"/>
       <path id="DejaVuSerif-50" d="M 1581 2375 
L 2406 2375 
Q 2872 2375 3115 2626 
Q 3359 2878 3359 3353 
Q 3359 3831 3115 4081 
Q 2872 4331 2406 4331 
L 1581 4331 
L 1581 2375 
z
M 353 0 
L 353 331 
L 947 331 
L 947 4331 
L 353 4331 
L 353 4666 
L 2559 4666 
Q 3259 4666 3668 4311 
Q 4078 3956 4078 3353 
Q 4078 2753 3668 2397 
Q 3259 2041 2559 2041 
L 1581 2041 
L 1581 331 
L 2303 331 
L 2303 0 
L 353 0 
z
" transform="scale(0.015625)"/>
      </defs>
      <use xlink:href="#DejaVuSerif-54"/>
      <use xlink:href="#DejaVuSerif-54" x="68.574219"/>
      <use xlink:href="#DejaVuSerif-32" x="135.273438"/>
      <use xlink:href="#DejaVuSerif-20" x="198.896484"/>
      <use xlink:href="#DejaVuSerif-4c" x="230.683594"/>
      <use xlink:href="#DejaVuSerif-42" x="297.089844"/>
      <use xlink:href="#DejaVuSerif-49" x="370.576172"/>
      <use xlink:href="#DejaVuSerif-50" x="410.078125"/>
      <use xlink:href="#DejaVuSerif-30" x="477.363281"/>
      <use xlink:href="#DejaVuSerif-20" x="540.986328"/>
      <use xlink:href="#DejaVuSerif-28" x="572.773438"/>
      <use xlink:href="#DejaVuSerif-31" x="611.787109"/>
      <use xlink:href="#DejaVuSerif-38" x="675.410156"/>
      <use xlink:href="#DejaVuSerif-33" x="739.033203"/>
      <use xlink:href="#DejaVuSerif-29" x="802.65625"/>
     </g>
    </g>
    <g id="line2d_56">
     <path d="M 54.615625 70.121172 
L 65.665625 70.121172 
L 76.715625 70.121172 
" style="fill: none; stroke-dasharray: 8.96,2.24,1.4,2.24; stroke-dashoffset: 0; stroke: #808080; stroke-width: 1.4"/>
     <g>
      <use xlink:href="#mc1f428eaf1" x="65.665625" y="70.121172" style="fill: #ffffff; stroke: #808080; stroke-linejoin: miter"/>
     </g>
    </g>
    <g id="text_18">
     <!-- TT2 CP (182) -->
     <g transform="translate(83.515625 73.096172) scale(0.085 -0.085)">
      <use xlink:href="#DejaVuSerif-54"/>
      <use xlink:href="#DejaVuSerif-54" x="68.574219"/>
      <use xlink:href="#DejaVuSerif-32" x="135.273438"/>
      <use xlink:href="#DejaVuSerif-20" x="198.896484"/>
      <use xlink:href="#DejaVuSerif-43" x="230.683594"/>
      <use xlink:href="#DejaVuSerif-50" x="307.197266"/>
      <use xlink:href="#DejaVuSerif-20" x="374.482422"/>
      <use xlink:href="#DejaVuSerif-28" x="406.269531"/>
      <use xlink:href="#DejaVuSerif-31" x="445.283203"/>
      <use xlink:href="#DejaVuSerif-38" x="508.90625"/>
      <use xlink:href="#DejaVuSerif-32" x="572.529297"/>
      <use xlink:href="#DejaVuSerif-29" x="636.152344"/>
     </g>
    </g>
    <g id="line2d_57">
     <path d="M 54.615625 82.597578 
L 65.665625 82.597578 
L 76.715625 82.597578 
" style="fill: none; stroke: #595959; stroke-width: 1.4; stroke-linecap: square"/>
     <g>
      <use xlink:href="#mcbfa4b9463" x="65.665625" y="82.597578" style="fill: #ffffff; stroke: #595959; stroke-linejoin: miter"/>
     </g>
    </g>
    <g id="text_19">
     <!-- TT2 LBMAX (182) -->
     <g transform="translate(83.515625 85.572578) scale(0.085 -0.085)">
      <use xlink:href="#DejaVuSerif-54"/>
      <use xlink:href="#DejaVuSerif-54" x="68.574219"/>
      <use xlink:href="#DejaVuSerif-32" x="135.273438"/>
      <use xlink:href="#DejaVuSerif-20" x="198.896484"/>
      <use xlink:href="#DejaVuSerif-4c" x="230.683594"/>
      <use xlink:href="#DejaVuSerif-42" x="297.089844"/>
      <use xlink:href="#DejaVuSerif-4d" x="370.576172"/>
      <use xlink:href="#DejaVuSerif-41" x="472.96875"/>
      <use xlink:href="#DejaVuSerif-58" x="545.185547"/>
      <use xlink:href="#DejaVuSerif-20" x="616.376953"/>
      <use xlink:href="#DejaVuSerif-28" x="648.164062"/>
      <use xlink:href="#DejaVuSerif-31" x="687.177734"/>
      <use xlink:href="#DejaVuSerif-38" x="750.800781"/>
      <use xlink:href="#DejaVuSerif-32" x="814.423828"/>
      <use xlink:href="#DejaVuSerif-29" x="878.046875"/>
     </g>
    </g>
    <g id="line2d_58">
     <path d="M 54.615625 95.073984 
L 65.665625 95.073984 
L 76.715625 95.073984 
" style="fill: none; stroke-dasharray: 5.18,2.24; stroke-dashoffset: 0; stroke: #000000; stroke-width: 1.4"/>
     <g>
      <use xlink:href="#m48abdf2af0" x="65.665625" y="95.073984" style="fill: #ffffff; stroke: #000000"/>
     </g>
    </g>
    <g id="text_20">
     <!-- TT2 LBCS (181) -->
     <g transform="translate(83.515625 98.048984) scale(0.085 -0.085)">
      <use xlink:href="#DejaVuSerif-54"/>
      <use xlink:href="#DejaVuSerif-54" x="68.574219"/>
      <use xlink:href="#DejaVuSerif-32" x="135.273438"/>
      <use xlink:href="#DejaVuSerif-20" x="198.896484"/>
      <use xlink:href="#DejaVuSerif-4c" x="230.683594"/>
      <use xlink:href="#DejaVuSerif-42" x="297.089844"/>
      <use xlink:href="#DejaVuSerif-43" x="372.451172"/>
      <use xlink:href="#DejaVuSerif-53" x="448.964844"/>
      <use xlink:href="#DejaVuSerif-20" x="517.470703"/>
      <use xlink:href="#DejaVuSerif-28" x="549.257812"/>
      <use xlink:href="#DejaVuSerif-31" x="588.271484"/>
      <use xlink:href="#DejaVuSerif-38" x="651.894531"/>
      <use xlink:href="#DejaVuSerif-31" x="715.517578"/>
      <use xlink:href="#DejaVuSerif-29" x="779.140625"/>
     </g>
    </g>
    <g id="line2d_59">
     <path d="M 54.615625 107.550391 
L 65.665625 107.550391 
L 76.715625 107.550391 
" style="fill: none; stroke-dasharray: 1.4,2.31; stroke-dashoffset: 0; stroke: #808080; stroke-width: 1.4"/>
     <g>
      <use xlink:href="#mc145cea7a7" x="65.665625" y="107.550391" style="fill: #ffffff; stroke: #808080; stroke-linejoin: miter"/>
     </g>
    </g>
    <g id="text_21">
     <!-- TT2 LBCC (179) -->
     <g transform="translate(83.515625 110.525391) scale(0.085 -0.085)">
      <defs>
       <path id="DejaVuSerif-37" d="M 3609 4347 
L 1784 0 
L 1319 0 
L 3059 4153 
L 903 4153 
L 903 3578 
L 538 3578 
L 538 4666 
L 3609 4666 
L 3609 4347 
z
" transform="scale(0.015625)"/>
      </defs>
      <use xlink:href="#DejaVuSerif-54"/>
      <use xlink:href="#DejaVuSerif-54" x="68.574219"/>
      <use xlink:href="#DejaVuSerif-32" x="135.273438"/>
      <use xlink:href="#DejaVuSerif-20" x="198.896484"/>
      <use xlink:href="#DejaVuSerif-4c" x="230.683594"/>
      <use xlink:href="#DejaVuSerif-42" x="297.089844"/>
      <use xlink:href="#DejaVuSerif-43" x="372.451172"/>
      <use xlink:href="#DejaVuSerif-43" x="448.964844"/>
      <use xlink:href="#DejaVuSerif-20" x="525.478516"/>
      <use xlink:href="#DejaVuSerif-28" x="557.265625"/>
      <use xlink:href="#DejaVuSerif-31" x="596.279297"/>
      <use xlink:href="#DejaVuSerif-37" x="659.902344"/>
      <use xlink:href="#DejaVuSerif-39" x="723.525391"/>
      <use xlink:href="#DejaVuSerif-29" x="787.148438"/>
     </g>
    </g>
   </g>
  </g>
 </g>
 <defs>
  <clipPath id="pb176581b7c">
   <rect x="46.965625" y="21.558281" width="290.16" height="188.496"/>
  </clipPath>
 </defs>
</svg>
